<?xml version="1.0" standalone="no"?>
<!DOCTYPE svg PUBLIC "-//W3C//DTD SVG 20010904//EN"
 "http://www.w3.org/TR/2001/REC-SVG-20010904/DTD/svg10.dtd">
<svg version="1.0" xmlns="http://www.w3.org/2000/svg"
 width="300.000000pt" height="300.000000pt" viewBox="0 0 300.000000 300.000000"
 preserveAspectRatio="xMidYMid meet">
<metadata>
Created by potrace 1.10, written by Peter Selinger 2001-2011
</metadata>
<g transform="translate(0.000000,300.000000) scale(0.100000,-0.100000)"
fill="#000000" stroke="none">
<path d="M1442 2970 c-20 -12 -41 -37 -50 -60 -10 -22 -22 -40 -29 -40 -15 0
-33 -32 -33 -60 0 -11 -7 -34 -15 -51 -21 -40 -10 -92 26 -129 26 -25 29 -35
29 -92 0 -81 -18 -104 -125 -160 l-80 -43 -47 -90 c-73 -139 -138 -364 -138
-476 0 -45 24 -63 105 -74 47 -7 115 -29 115 -38 0 -10 -34 -103 -40 -110 -8
-9 -54 52 -84 111 -10 19 -20 32 -22 29 -7 -7 22 -64 62 -118 19 -26 34 -51
34 -56 0 -6 18 -18 40 -28 32 -14 39 -22 35 -39 -3 -12 -32 -279 -65 -594 -43
-423 -63 -580 -74 -598 -9 -13 -16 -35 -16 -49 0 -14 -9 -44 -20 -66 -12 -22
-22 -56 -23 -77 l-2 -37 135 -3 c74 -1 159 1 189 5 l54 8 22 65 c20 58 21 67
7 82 -13 15 -13 50 -1 300 l14 283 6 -155 c4 -85 7 -246 8 -357 1 -139 5 -204
12 -209 22 -13 197 -16 294 -5 90 11 239 51 258 71 12 11 -17 64 -48 88 -13
11 -55 32 -92 48 -38 15 -70 29 -72 31 -2 1 -7 20 -10 40 -6 31 -11 38 -29 37
-17 0 -23 6 -27 30 -2 17 -23 254 -45 526 -22 272 -43 511 -46 530 -5 33 -2
38 41 68 38 27 45 37 45 66 0 19 11 56 24 83 13 26 28 66 31 88 4 22 17 50 28
62 18 20 19 31 14 110 -6 92 -29 196 -67 297 -25 66 -81 132 -135 162 -50 27
-63 75 -31 118 13 17 30 45 39 61 25 49 49 162 42 195 -10 47 4 58 32 24 24
-28 25 -28 18 -4 -4 14 -13 35 -21 47 -19 30 -18 39 2 22 13 -11 12 -5 -4 27
-28 55 -72 90 -134 109 -68 20 -96 19 -136 -5z m143 -39 c42 -19 82 -57 72
-67 -7 -7 -179 34 -199 48 -10 6 -8 12 6 23 26 20 72 19 121 -4z m-10 -95 c38
-10 75 -22 82 -28 23 -18 14 -30 -17 -23 -19 4 -30 3 -30 -4 0 -6 15 -11 33
-11 31 0 31 -1 -23 -31 -47 -26 -66 -31 -125 -31 -38 0 -70 3 -69 8 0 5 8 27
18 49 17 37 17 44 4 82 l-15 42 36 -18 c20 -10 67 -26 106 -35z m-164 -9 c-1
-4 -1 -19 -1 -33 0 -28 -17 -29 -34 -2 -7 12 -6 21 4 32 13 16 32 18 31 3z m9
-173 c0 -43 25 -68 62 -60 20 4 28 2 28 -9 0 -22 43 -28 84 -11 24 10 36 21
36 35 0 10 6 22 13 24 7 4 6 6 -4 6 -16 1 -49 41 -49 59 0 7 63 42 76 42 4 0
3 -17 0 -37 -3 -21 -8 -53 -10 -71 -5 -35 -41 -103 -81 -150 -19 -22 -31 -29
-48 -25 -34 9 -83 49 -107 88 -12 20 -25 34 -27 31 -9 -8 36 -73 69 -101 17
-14 44 -29 60 -32 33 -7 33 -5 7 -140 -6 -34 -8 -70 -4 -80 5 -13 12 2 21 51
15 78 26 95 48 77 7 -6 23 -14 35 -16 57 -11 121 -126 157 -283 33 -146 32
-207 -3 -244 -38 -40 -53 -36 -54 15 -3 74 -20 -88 -19 -178 1 -68 -2 -85 -20
-108 -31 -39 -40 -33 -33 23 4 34 2 50 -6 50 -6 0 -11 -1 -11 -3 0 -1 -4 -17
-9 -35 -11 -37 -5 -43 10 -10 7 18 8 16 2 -12 -3 -19 -6 -53 -6 -75 1 -53 92
-1084 99 -1113 3 -15 12 -22 28 -22 19 0 25 -6 28 -29 4 -25 -1 -31 -26 -44
-17 -8 -75 -51 -129 -96 -87 -72 -144 -111 -162 -111 -3 0 -5 74 -5 163 0 204
-12 866 -16 852 -1 -6 -12 -190 -24 -410 -12 -220 -24 -411 -27 -425 -5 -24
-6 -23 -24 15 -11 22 -24 59 -30 83 -6 23 -15 42 -20 42 -8 0 20 -90 41 -132
7 -12 24 -35 38 -50 24 -26 25 -30 13 -70 l-13 -43 -18 57 c-35 112 -90 168
-168 168 -36 0 -45 -6 -91 -56 -51 -55 -73 -52 -27 4 15 17 23 36 20 48 -3 10
20 262 51 559 58 558 59 565 101 565 10 0 9 -8 -2 -36 -16 -39 -16 -100 1 -98
13 1 49 73 41 81 -3 3 -8 0 -10 -8 -3 -8 -11 -27 -18 -44 l-12 -30 -4 29 c-5
43 25 116 49 116 14 0 19 7 19 30 0 20 5 30 15 30 9 0 15 -9 15 -25 0 -23 4
-25 46 -25 46 0 46 0 42 30 -4 29 -3 30 37 30 50 0 54 -3 47 -35 -4 -21 -10
-25 -41 -26 -23 -1 -28 -3 -13 -6 21 -4 22 -8 21 -116 0 -127 -13 -176 -49
-194 -18 -9 -20 -13 -8 -13 24 0 55 36 62 72 3 17 6 79 6 139 0 108 0 109 25
115 14 3 35 4 46 1 17 -5 20 -1 17 21 -2 19 -10 28 -26 30 -18 3 -22 8 -16 20
14 34 16 60 4 67 -12 7 -50 -21 -50 -38 0 -6 11 0 25 13 24 22 25 22 25 4 0
-31 -18 -42 -60 -37 -25 4 -46 0 -64 -12 -18 -12 -37 -16 -61 -12 -21 3 -50 0
-70 -9 -49 -20 -78 -17 -105 11 -22 24 -22 26 -8 77 12 43 19 53 35 51 18 -2
21 5 27 70 8 78 43 336 52 377 3 16 2 21 -4 15 -8 -9 -41 -224 -59 -388 l-8
-69 -36 35 c-27 27 -48 37 -85 42 -64 9 -114 33 -114 54 0 38 32 193 56 271
28 91 106 261 126 277 7 6 37 23 66 38 l52 28 25 -23 c14 -13 25 -29 25 -36 0
-7 4 -15 10 -19 14 -9 -9 52 -26 66 -20 17 -17 28 11 41 21 9 28 8 45 -7 11
-10 20 -24 20 -32 0 -7 5 -13 10 -13 6 0 10 -9 10 -21 0 -25 41 -162 46 -156
3 2 -5 33 -16 68 -11 35 -20 71 -20 78 0 26 17 -2 35 -57 9 -29 19 -51 21 -49
3 2 1 30 -2 62 -6 45 -11 59 -26 63 -11 3 -21 17 -25 34 -4 18 -16 34 -34 44
-25 13 -29 21 -31 62 -6 134 -10 179 -15 160 -2 -10 -8 -18 -13 -18 -17 0 -28
27 -26 72 0 25 -2 44 -6 41 -10 -5 -10 11 -1 21 4 3 26 -13 50 -36 33 -32 43
-50 43 -74z m110 18 c0 -10 -7 -28 -16 -40 -22 -31 -68 -27 -72 6 -6 41 5 52
48 52 32 0 40 -4 40 -18z m68 -15 c28 -42 28 -51 -3 -65 -32 -15 -78 -16 -70
-2 3 6 2 10 -3 10 -12 0 30 89 43 89 6 1 20 -14 33 -32z m178 -939 c-8 -29
-21 -61 -29 -71 -12 -17 -13 -13 -14 35 -1 46 2 56 25 75 15 11 29 20 30 18 2
-2 -3 -27 -12 -57z m-490 -1437 c39 -24 71 -75 94 -151 22 -71 24 -70 -89 -40
-92 25 -114 25 -190 1 -34 -10 -61 -17 -61 -15 0 15 34 82 66 130 60 90 117
114 180 75z m569 -41 l27 -10 -35 -40 c-20 -21 -41 -57 -48 -78 -14 -49 -26
-52 -183 -52 l-111 1 35 19 c19 10 64 45 100 76 93 82 148 116 171 104 10 -6
30 -15 44 -20z m91 -41 c33 -20 54 -47 54 -68 0 -10 -94 -41 -168 -56 -32 -7
-34 -6 -27 16 13 41 32 73 60 102 33 32 38 33 81 6z m-651 -143 l60 -13 -65
-7 c-36 -4 -108 -6 -160 -4 l-95 3 35 17 c42 21 140 23 225 4z"/>
<path d="M1477 2563 c-11 -10 -8 -25 3 -18 5 3 16 -7 24 -23 19 -37 45 -48 63
-27 7 8 8 10 1 5 -16 -14 -24 -13 -42 6 -23 22 -20 37 3 24 11 -5 26 -10 33
-10 7 1 0 7 -17 14 -16 7 -33 11 -37 9 -5 -2 -8 3 -8 11 0 17 -12 21 -23 9z"/>
<path d="M1210 2294 c0 -6 12 -21 26 -35 15 -13 35 -43 46 -66 23 -52 30 -55
15 -7 -11 35 -86 129 -87 108z"/>
<path d="M1735 2035 c-4 -37 -5 -69 -2 -71 2 -3 8 25 12 61 4 37 5 69 2 71 -2
3 -8 -25 -12 -61z"/>
<path d="M1613 1928 c-18 -29 -53 -99 -78 -156 -51 -115 -63 -138 -114 -202
-20 -24 -30 -41 -23 -36 34 21 94 116 147 232 31 71 71 148 87 172 16 23 25
42 21 42 -5 0 -23 -24 -40 -52z"/>
<path d="M1452 1335 c-1 -49 -4 -108 -7 -130 l-5 -40 10 40 c6 22 9 80 7 130
l-3 90 -2 -90z"/>
<path d="M1607 1255 c3 -49 7 -92 9 -94 7 -8 3 104 -6 144 -5 27 -6 11 -3 -50z"/>
<path d="M1622 1105 c0 -27 5 -111 12 -185 8 -74 14 -112 14 -85 0 28 -5 111
-12 185 -8 74 -14 113 -14 85z"/>
<path d="M1286 1068 c-11 -103 -38 -618 -33 -630 3 -7 6 5 6 27 1 22 10 177
21 345 10 168 17 306 15 308 -2 2 -6 -20 -9 -50z"/>
<path d="M1653 725 c0 -33 2 -45 4 -27 2 18 2 45 0 60 -2 15 -4 0 -4 -33z"/>
<path d="M1667 550 c3 -63 9 -133 13 -155 10 -45 5 34 -10 185 -8 78 -8 76 -3
-30z"/>
<path d="M1161 353 c-17 -21 -31 -42 -31 -48 0 -5 7 -1 16 10 8 11 26 32 40
48 14 15 21 27 16 27 -6 0 -24 -17 -41 -37z"/>
<path d="M1658 312 c-41 -30 -85 -82 -69 -82 6 0 15 9 21 20 6 11 34 36 63 55
28 19 45 35 37 35 -8 -1 -32 -13 -52 -28z"/>
<path d="M1144 230 c-42 -17 -33 -27 9 -12 27 10 53 13 72 8 28 -7 103 -75
138 -126 17 -25 17 -24 2 7 -21 44 -72 101 -106 119 -31 15 -82 17 -115 4z"/>
</g>
</svg>
