<?xml version="1.0" standalone="no"?>
<!DOCTYPE svg PUBLIC "-//W3C//DTD SVG 20010904//EN"
 "http://www.w3.org/TR/2001/REC-SVG-20010904/DTD/svg10.dtd">
<svg version="1.0" xmlns="http://www.w3.org/2000/svg"
 width="300.000000pt" height="395.000000pt" viewBox="0 0 300.000000 395.000000"
 preserveAspectRatio="xMidYMid meet">
<metadata>
Created by potrace 1.10, written by Peter Selinger 2001-2011
</metadata>
<g transform="translate(0.000000,395.000000) scale(0.100000,-0.100000)"
fill="#000000" stroke="none">
<path d="M2045 3944 c-209 -25 -333 -119 -371 -283 -19 -79 -17 -152 5 -219
10 -31 22 -77 26 -102 13 -79 55 -198 81 -230 14 -16 24 -30 22 -30 -3 0 -38
11 -79 25 -96 33 -278 80 -399 102 -139 25 -465 25 -575 -1 -187 -43 -330
-121 -469 -255 -216 -209 -299 -433 -275 -740 25 -320 263 -621 541 -681 88
-20 237 -8 328 25 92 34 190 90 252 144 25 23 48 41 51 41 2 0 -2 -24 -10 -52
-17 -67 -13 -111 43 -451 44 -266 45 -269 26 -300 -10 -18 -37 -43 -60 -55
-55 -31 -520 -173 -639 -197 -102 -19 -99 -15 -83 -97 21 -103 19 -100 39 -93
16 5 21 -1 26 -27 4 -18 9 -41 11 -50 4 -13 0 -18 -16 -18 -15 0 -20 -5 -18
-17 2 -10 14 -75 28 -145 l25 -128 39 0 c50 0 109 55 126 120 12 43 9 166 -4
200 -5 12 60 31 361 103 203 48 387 97 411 109 62 30 132 104 175 185 35 67
79 217 92 316 3 26 11 47 18 47 91 -1 403 -32 415 -42 23 -19 42 -72 42 -116
0 -67 -79 -543 -104 -627 -38 -125 -42 -114 49 -141 97 -29 95 -28 95 -5 0 18
2 19 49 3 43 -13 48 -18 40 -33 -7 -13 -5 -19 9 -23 9 -3 73 -22 141 -42 119
-35 125 -36 138 -19 20 28 16 105 -7 142 -24 39 -106 95 -177 119 -38 13 -52
23 -49 34 3 8 44 195 93 415 101 457 105 501 59 579 -17 28 -46 59 -73 76 -26
17 -149 63 -282 106 -130 42 -238 78 -240 80 -2 2 17 72 42 156 25 84 51 175
58 202 12 46 20 55 235 239 199 172 221 193 208 208 -16 18 -19 39 -4 39 6 0
10 5 10 11 0 6 14 29 31 50 29 37 32 38 45 22 19 -26 17 -31 -17 -38 -17 -4
-33 -14 -36 -23 -4 -10 -11 -20 -17 -24 -6 -4 -7 -11 -2 -15 4 -4 13 -1 19 7
10 12 59 40 71 40 2 0 6 -35 10 -77 4 -43 10 -88 13 -100 l5 -23 37 28 c20 16
100 73 179 127 143 98 143 98 115 111 -15 6 -50 21 -76 33 l-48 21 17 25 c13
21 15 31 6 50 -13 27 -97 85 -124 85 -13 0 -18 8 -18 30 0 45 -29 67 -97 75
-80 9 -133 -7 -171 -50 -22 -24 -32 -30 -36 -20 -3 8 -17 22 -31 31 -25 16
-27 16 -57 -6 -29 -21 -33 -22 -89 -10 -57 12 -80 30 -39 30 32 0 97 37 139
79 44 44 93 140 111 219 12 51 12 52 50 52 71 0 76 46 19 181 -39 92 -48 135
-36 175 17 55 1 97 -62 166 -74 80 -153 124 -247 138 -69 10 -83 10 -139 4z
m148 -29 c84 -22 149 -58 206 -115 28 -28 51 -54 51 -59 0 -4 -172 -57 -381
-118 l-381 -110 4 76 c10 175 113 283 311 326 83 18 122 18 190 0z m268 -222
c2 -34 -3 -58 -14 -69 -7 -6 -61 -25 -122 -42 -60 -17 -220 -63 -354 -102
-134 -39 -248 -67 -252 -63 -5 5 -10 24 -11 42 l-3 34 365 108 c201 58 371
107 378 108 6 0 13 -7 13 -16z m9 -127 c0 -9 -21 -15 -61 -20 -106 -11 -117
-5 -34 18 83 23 95 23 95 2z m26 -91 c13 -31 24 -60 24 -65 0 -29 -421 5 -486
38 l-36 19 83 21 c50 14 138 26 219 31 74 4 143 9 153 10 13 1 25 -15 43 -54z
m-441 -95 c-50 -97 -198 -260 -236 -260 -19 0 -49 64 -73 156 -29 110 -32 105
102 145 l117 35 52 -25 c51 -24 51 -25 38 -51z m255 -1 c69 -6 149 -8 178 -4
l52 6 0 -34 c0 -38 -12 -47 -61 -47 -23 0 -30 -5 -35 -27 -15 -66 -33 -123
-53 -162 l-22 -41 -31 16 c-44 23 -117 23 -152 1 -19 -13 -25 -22 -18 -29 7
-7 18 -5 33 6 13 9 38 16 55 16 37 0 94 -18 94 -30 0 -18 -86 -80 -133 -96
-72 -24 -176 -15 -245 20 -49 25 -142 100 -142 115 0 3 18 16 40 29 44 25 138
137 192 228 l33 56 45 -6 c25 -3 101 -11 170 -17z m-1020 -195 c142 -21 373
-79 517 -129 14 -5 -12 -56 -152 -310 -188 -341 -357 -690 -427 -881 -29 -81
-31 -82 -116 -147 -308 -232 -609 -229 -848 9 -117 117 -198 282 -230 468 -62
356 173 760 538 926 186 84 442 107 718 64z m597 -184 c50 -44 127 -77 194
-82 50 -4 49 -3 49 -59 l0 -42 -54 6 c-69 7 -152 48 -216 106 -50 45 -51 47
-40 79 7 17 14 32 17 32 3 0 25 -18 50 -40z m-35 -95 c66 -62 158 -105 225
-105 71 0 83 -19 85 -131 l1 -84 -49 -43 c-27 -24 -66 -57 -86 -73 l-37 -30
-6 28 c-41 200 -127 287 -251 253 -79 -22 -124 -96 -124 -204 0 -60 23 -221
56 -386 22 -116 27 -127 59 -157 29 -27 43 -33 80 -33 50 0 123 32 177 78 70
59 69 62 22 -95 -24 -81 -51 -173 -59 -203 -10 -36 -25 -64 -44 -82 -87 -79
-296 -77 -581 4 l-115 33 3 48 c5 74 107 318 272 647 139 276 305 580 317 580
3 0 28 -20 55 -45z m821 16 c61 -23 33 -103 -83 -241 -39 -46 -80 -96 -91
-111 l-20 -28 -79 94 c-87 102 -89 110 -69 205 12 56 26 68 58 50 20 -10 20
-13 6 -33 -18 -25 -20 -47 -4 -47 6 0 36 24 67 54 31 29 64 56 72 59 25 9 117
8 143 -2z m-405 -51 c38 -10 43 -14 38 -33 -3 -12 -6 -35 -6 -52 l0 -30 -62 2
c-53 1 -63 4 -74 25 -14 25 -17 69 -8 105 6 20 8 21 37 8 18 -8 52 -19 75 -25z
m528 -72 c47 -28 60 -54 39 -78 -16 -18 -19 -17 -77 10 -33 16 -62 31 -65 33
-2 3 3 19 12 37 18 34 30 34 91 -2z m137 -177 c4 -4 -54 -49 -128 -100 -75
-51 -139 -91 -141 -88 -3 3 -10 36 -15 73 -5 38 -18 87 -29 108 -21 43 -20 44
24 97 l30 36 125 -59 c69 -33 129 -63 134 -67z m-633 94 c0 -8 -6 -15 -12 -15
-7 0 -31 -9 -53 -20 -34 -17 -36 -20 -12 -16 15 2 27 2 27 2 0 -1 -15 -16 -32
-34 l-33 -31 -1 64 0 65 58 0 c45 0 58 -3 58 -15z m-460 -27 c37 -19 51 -34
78 -88 18 -36 38 -95 44 -132 6 -38 14 -68 17 -68 3 0 82 66 174 146 93 80
170 144 172 142 62 -69 164 -195 162 -199 -1 -4 -85 -78 -187 -165 -102 -86
-223 -193 -270 -236 -127 -118 -208 -150 -280 -113 -36 19 -52 66 -86 265 -29
170 -40 292 -30 344 12 64 78 121 146 125 9 1 36 -9 60 -21z m349 -1092 c125
-41 246 -83 268 -94 80 -41 119 -115 111 -213 -4 -42 -175 -847 -182 -856 -3
-3 -199 56 -204 62 -3 2 12 109 33 237 43 263 47 336 21 389 -28 59 -57 67
-286 83 -113 8 -206 13 -208 11 -2 -2 -8 -33 -13 -70 -33 -235 -116 -401 -233
-470 -46 -27 -776 -209 -787 -197 -8 10 -43 201 -38 207 3 2 111 37 239 76
264 80 294 93 338 144 40 44 40 65 7 250 -35 201 -65 409 -65 460 l0 43 93
-29 c312 -97 560 -95 644 6 15 18 30 34 32 34 1 1 105 -32 230 -73z m-1519
-1046 c12 -63 25 -158 28 -210 4 -85 2 -101 -17 -139 -15 -29 -33 -47 -58 -57
-19 -8 -37 -13 -40 -10 -3 3 -13 45 -23 93 -31 157 -31 153 -15 153 18 0 19
34 4 96 -8 32 -16 44 -30 44 -18 0 -27 26 -32 95 -2 29 -1 30 73 46 41 9 78
13 81 10 3 -3 16 -58 29 -121z m1673 -131 c128 -41 209 -78 246 -112 33 -31
53 -83 46 -119 -8 -34 -6 -34 -150 10 -72 22 -91 32 -93 49 -2 15 -18 25 -64
39 -55 16 -61 17 -72 2 -11 -15 -17 -15 -69 0 -31 9 -57 22 -57 27 0 6 10 43
21 82 25 84 5 82 192 22z"/>
<path d="M1080 309 c-107 -3 -222 -7 -254 -8 -33 0 -56 -4 -52 -8 4 -4 62 -5
129 -3 67 3 356 5 642 5 286 0 481 3 433 6 -133 11 -681 16 -898 8z"/>
<path d="M390 264 c-8 -1 -62 -10 -120 -19 -124 -20 -223 -49 -241 -71 -28
-34 52 -70 220 -99 133 -23 342 -44 491 -49 109 -4 120 -3 55 3 -44 5 -118 11
-165 14 -207 14 -485 59 -547 89 -15 7 -28 19 -31 26 -8 26 115 60 309 88 62
8 116 17 118 20 5 4 -65 3 -89 -2z"/>
<path d="M2758 194 c28 -14 52 -29 52 -34 0 -43 -246 -91 -595 -116 -44 -3
-116 -10 -160 -14 -63 -7 -50 -8 62 -4 317 11 643 63 704 113 30 24 16 43 -48
65 -68 23 -75 19 -15 -10z"/>
<path d="M928 13 c18 -2 45 -2 60 0 15 2 0 4 -33 4 -33 0 -45 -2 -27 -4z"/>
<path d="M1857 13 c18 -2 50 -2 70 0 21 2 7 4 -32 4 -38 0 -55 -2 -38 -4z"/>
</g>
</svg>
