<?xml version="1.0" standalone="no"?>
<!DOCTYPE svg PUBLIC "-//W3C//DTD SVG 20010904//EN"
 "http://www.w3.org/TR/2001/REC-SVG-20010904/DTD/svg10.dtd">
<svg version="1.0" xmlns="http://www.w3.org/2000/svg"
 width="300.000000pt" height="312.000000pt" viewBox="0 0 300.000000 312.000000"
 preserveAspectRatio="xMidYMid meet">
<metadata>
Created by potrace 1.10, written by Peter Selinger 2001-2011
</metadata>
<g transform="translate(0.000000,312.000000) scale(0.100000,-0.100000)"
fill="#000000" stroke="none">
<path d="M1110 3074 l0 -50 -40 4 c-26 3 -54 -3 -83 -17 -24 -12 -46 -21 -49
-21 -3 0 -11 14 -17 32 -20 58 -23 20 -6 -79 10 -54 19 -111 20 -128 4 -38 53
-164 74 -188 18 -21 13 -26 -56 -58 -24 -11 -43 -24 -43 -30 0 -5 -9 -22 -20
-37 -11 -15 -27 -58 -35 -97 -11 -56 -20 -74 -42 -90 -52 -38 -96 -80 -125
-119 -23 -32 -28 -49 -28 -97 l0 -58 -30 6 c-40 7 -72 -19 -64 -53 l6 -23 -64
24 c-36 14 -75 38 -92 57 -27 30 -28 34 -22 102 3 39 9 90 12 114 11 69 -10
49 -59 -57 -45 -98 -99 -161 -137 -161 -8 0 21 -36 65 -81 l80 -80 -28 -23
c-21 -17 -24 -25 -15 -34 9 -9 7 -16 -8 -33 -41 -45 -70 -52 -185 -45 -71 5
-109 3 -114 -4 -4 -6 4 -10 19 -10 37 0 73 -16 156 -70 56 -37 92 -53 135 -60
33 -6 86 -15 117 -21 32 -5 93 -21 135 -36 43 -14 98 -27 123 -28 l45 -3 -35
16 c-36 17 -186 168 -228 229 -29 41 -46 123 -26 123 9 0 14 -12 14 -34 0 -19
11 -50 26 -72 40 -60 204 -223 247 -245 32 -17 36 -23 27 -35 -7 -8 -19 -14
-26 -14 -8 0 -14 -6 -14 -13 0 -7 -14 -26 -31 -43 -17 -16 -39 -46 -50 -66
-26 -50 -37 -55 -66 -25 l-26 25 82 53 c62 40 81 58 79 73 -2 11 -9 21 -17 24
-8 3 -11 1 -8 -4 2 -5 -29 -29 -70 -54 -84 -51 -226 -151 -221 -155 2 -2 39 1
82 6 68 9 82 8 95 -6 15 -15 14 -18 -12 -41 -15 -13 -41 -24 -56 -24 -29 0
-61 -28 -105 -94 -35 -53 -37 -132 -3 -164 21 -20 47 -29 47 -17 0 2 -11 21
-25 41 -25 37 -33 74 -16 74 5 0 11 -5 13 -11 2 -6 27 5 58 25 30 20 60 36 66
36 19 0 44 35 44 61 0 40 96 185 174 263 119 119 239 229 233 212 -4 -9 14
-48 45 -98 81 -132 130 -173 188 -158 21 5 17 8 -23 14 -26 4 -45 11 -42 16 2
4 -3 14 -12 21 -14 12 -16 12 -8 0 5 -10 4 -12 -3 -7 -7 4 -12 14 -12 23 0 9
-3 14 -6 10 -4 -3 -14 8 -24 26 -9 18 -29 52 -43 77 -32 54 -46 84 -41 89 1 1
44 5 94 7 50 2 98 8 108 14 12 7 2 8 -37 4 -52 -7 -54 -6 -48 14 3 12 1 25 -4
28 -5 3 -9 14 -9 24 0 23 27 17 33 -8 3 -12 5 -10 6 6 1 12 7 22 16 22 9 0 15
-10 16 -22 1 -18 3 -16 10 10 13 43 25 40 33 -8 6 -36 10 -40 48 -50 36 -10
48 -9 87 8 25 11 61 26 79 32 18 7 35 17 38 22 4 6 -3 5 -14 -1 -11 -6 -31
-11 -45 -11 -20 0 -25 7 -34 48 l-11 47 4 -56 c3 -52 1 -57 -22 -68 -14 -6
-40 -11 -58 -11 -37 0 -46 12 -46 64 0 48 27 43 35 -6 4 -22 9 -37 11 -35 3 2
2 23 -2 46 -6 35 -10 41 -30 41 -18 0 -24 6 -24 21 0 11 -5 17 -10 14 -6 -3
-13 1 -16 10 -5 12 -14 15 -32 10 -31 -8 -47 13 -27 35 12 14 12 16 -3 16 -10
0 -26 -18 -38 -44 -18 -36 -19 -42 -6 -37 9 3 35 9 59 12 43 6 43 6 43 -26 0
-25 -6 -34 -26 -41 -25 -10 -100 -13 -77 -3 22 8 -9 43 -39 43 -22 0 -31 7
-43 36 -8 20 -15 44 -15 53 0 10 -8 35 -19 57 -29 63 -34 92 -14 96 13 2 11 6
-10 15 -23 11 -25 10 -20 -5 7 -16 5 -16 -20 1 -15 9 -27 13 -27 8 0 -5 7 -12
15 -15 23 -8 104 -203 105 -248 0 -15 -33 -8 -47 10 -12 14 -14 15 -10 1 3 -9
0 -22 -6 -28 -8 -8 -7 -11 3 -11 11 0 11 -3 2 -12 -7 -7 -12 -16 -12 -22 0 -5
6 -1 14 9 8 11 12 23 10 27 -3 5 15 8 40 8 24 0 53 3 63 7 10 3 15 3 11 -1 -3
-4 0 -29 8 -54 20 -68 19 -72 -23 -72 -20 0 -52 -5 -70 -12 -43 -16 -51 -7
-65 75 -9 58 -9 70 6 92 16 24 16 30 1 74 -8 27 -29 69 -45 95 -34 54 -41 126
-14 164 8 12 10 22 5 22 -6 0 -11 -5 -11 -11 0 -5 -5 -7 -10 -4 -14 9 -12 105
3 132 9 16 16 20 27 13 8 -5 25 -10 38 -10 22 0 22 -1 7 -30 -18 -34 -31 -37
-57 -13 -17 15 -18 15 -18 -5 0 -13 6 -22 15 -22 19 0 32 -30 34 -79 1 -11 5
-10 15 4 12 17 18 18 53 7 22 -7 49 -12 59 -12 11 0 32 -7 48 -15 25 -13 32
-14 43 -2 12 12 7 15 -36 20 -28 3 -61 13 -73 22 -13 8 -37 15 -55 15 -43 0
-52 19 -21 44 14 12 30 31 36 42 16 31 47 36 77 12 34 -27 31 -10 -7 48 -36
53 -58 66 -58 36 0 -22 -24 -46 -40 -40 -5 1 6 28 26 58 31 48 32 51 7 25 -15
-17 -40 -46 -55 -65 -23 -29 -29 -33 -38 -20 -27 38 23 125 65 114 13 -3 26
-1 29 5 4 6 33 11 66 11 51 0 62 4 90 30 18 17 41 30 51 30 11 0 32 9 48 21
37 27 119 29 158 4 15 -11 37 -20 47 -20 22 -2 56 -40 56 -61 0 -11 -5 -12
-18 -5 -15 8 -20 4 -30 -22 -7 -18 -21 -43 -31 -57 l-20 -25 -26 25 c-15 14
-38 48 -52 75 -30 59 -23 51 -53 60 l-25 7 20 -23 c36 -42 65 -88 65 -102 0
-7 5 -18 11 -24 13 -13 -20 -25 -72 -27 -15 -1 -25 -3 -23 -5 2 -2 -3 -12 -12
-22 -9 -10 -14 -27 -11 -38 3 -13 1 -18 -8 -15 -7 3 -15 -5 -19 -20 -3 -14
-20 -36 -36 -48 -34 -24 -37 -33 -15 -42 8 -3 14 -2 12 2 -4 13 58 83 87 99
15 8 25 10 22 4 -4 -6 -3 -11 3 -11 5 0 12 -8 16 -17 7 -21 92 -89 106 -86 5
2 9 -2 9 -8 0 -5 4 -8 9 -5 5 4 16 3 25 0 17 -7 15 -31 -10 -96 -20 -56 -9
-46 20 16 26 54 26 55 57 44 17 -6 36 -19 42 -29 20 -31 26 -21 9 15 -8 19
-21 32 -28 29 -6 -2 -29 5 -50 16 -21 12 -43 21 -48 21 -22 0 -109 66 -132 99
-35 52 -31 66 21 81 57 16 111 6 130 -24 9 -13 33 -31 55 -41 22 -10 40 -22
40 -26 0 -15 -42 -21 -51 -8 -13 21 -34 -4 -22 -26 6 -9 12 -16 14 -15 10 4
57 -20 62 -32 3 -7 6 5 6 27 1 22 4 49 6 60 5 18 -34 54 -104 95 -20 12 17
100 42 100 31 0 72 -27 110 -72 20 -24 44 -50 53 -58 8 -8 30 -29 49 -47 31
-30 45 -33 45 -9 0 14 -186 206 -199 206 -5 0 -16 13 -24 29 -13 26 -13 28 4
24 11 -3 19 -8 19 -12 0 -3 12 -12 28 -18 15 -7 40 -24 56 -38 16 -14 33 -25
38 -25 5 0 6 -5 3 -10 -4 -6 -3 -10 2 -9 23 4 43 -5 93 -42 44 -33 49 -35 27
-12 -15 16 -25 32 -22 36 3 4 2 5 -1 2 -4 -2 -16 6 -28 18 -27 30 -62 56 -52
40 5 -9 2 -11 -8 -7 -9 3 -14 10 -13 16 3 13 -172 113 -201 115 -40 3 -92 24
-86 35 4 6 23 8 48 4 41 -7 176 -50 208 -67 21 -12 33 5 14 20 -11 9 -15 9
-19 -1 -4 -9 -6 -9 -6 2 -1 15 -41 30 -120 46 -27 5 -31 8 -20 18 26 23 210
60 299 60 75 1 91 -3 136 -27 74 -41 137 -120 164 -204 7 -21 19 -48 27 -61 8
-13 12 -29 10 -35 -2 -7 0 -25 5 -42 19 -70 30 -229 17 -258 -8 -18 -7 -33 7
-63 9 -21 20 -75 25 -119 5 -56 6 -27 3 95 -2 96 -8 214 -14 262 -10 88 -68
283 -96 326 -30 46 -8 30 31 -23 22 -30 45 -54 51 -55 7 0 26 -13 44 -30 18
-16 35 -30 39 -30 20 0 221 -216 221 -237 0 -5 14 -24 30 -43 16 -19 30 -41
30 -47 0 -7 5 -13 10 -13 6 0 10 -9 10 -19 0 -11 5 -23 11 -27 10 -6 42 -71
41 -84 0 -3 3 -9 8 -15 18 -22 71 -170 62 -173 -6 -2 -5 -13 3 -28 9 -18 10
-35 4 -57 -19 -67 -12 -89 70 -213 43 -66 89 -137 101 -159 72 -128 112 -195
125 -205 20 -16 19 -29 -3 -54 -10 -12 -26 -46 -35 -76 -9 -31 -23 -64 -30
-74 -12 -17 -15 -15 -40 23 -15 22 -27 44 -27 49 0 11 -41 48 -62 55 -29 10
-53 -56 -48 -133 5 -76 4 -215 -1 -247 -2 -13 -9 -23 -16 -23 -7 0 -12 3 -11
8 1 7 -3 18 -37 98 -22 49 -79 124 -96 124 -4 0 -20 -11 -34 -24 -19 -17 -35
-53 -55 -123 -42 -149 -120 -341 -153 -382 -6 -7 -11 -28 -9 -45 2 -31 2 -31
-9 -6 -12 25 -12 25 -22 -15 -11 -43 5 -168 24 -191 14 -17 -14 -55 -61 -84
-29 -18 -31 -21 -10 -16 14 3 33 6 42 6 9 0 29 11 44 23 32 28 34 56 8 164
-16 67 -16 75 -1 91 36 40 148 308 186 446 12 43 28 90 35 104 l13 25 37 -66
c21 -36 46 -91 57 -121 20 -57 27 -168 14 -218 -13 -52 15 -30 45 35 46 98 62
214 54 395 -4 98 -3 152 3 152 5 0 27 -37 47 -83 50 -111 51 -112 67 -112 16
0 51 59 79 134 25 65 29 164 10 211 -21 53 -120 217 -205 343 l-76 112 15 33
c9 18 16 46 16 63 0 82 -130 384 -213 495 -25 33 -83 98 -129 145 -89 91 -375
319 -446 356 -89 45 -176 41 -431 -23 -176 -44 -197 -44 -250 4 -34 31 -43 47
-55 102 -18 80 -80 287 -89 297 -4 3 -7 -16 -7 -43z m22 -82 c-7 -2 -9 -14 -6
-31 4 -16 1 -32 -5 -35 -6 -4 -11 -3 -11 3 0 6 -6 9 -12 6 -7 -2 -43 -6 -79
-9 -63 -4 -66 -3 -62 15 10 38 54 61 106 56 26 -2 50 0 53 5 3 4 10 5 17 1 8
-5 8 -8 -1 -11z m-26 -121 c-20 -38 -20 -47 -1 -31 8 7 15 21 15 31 0 23 16
25 24 3 10 -26 7 -44 -7 -38 -7 2 -26 -10 -42 -28 -16 -18 -24 -33 -17 -36 7
-2 8 -11 2 -27 -5 -12 -6 -27 -2 -31 4 -5 -1 -2 -10 5 -11 8 -18 27 -18 46 0
36 -23 50 -56 32 -10 -5 -16 -6 -12 -2 4 5 2 15 -5 23 -11 13 -9 14 13 2 24
-13 24 -12 -4 21 l-29 34 29 11 c16 6 43 9 60 7 27 -4 30 -8 28 -31 -2 -18 -1
-20 2 -7 7 22 35 57 41 51 3 -2 -3 -18 -11 -35z m34 -71 c0 -5 -5 -10 -11 -10
-8 0 -7 -5 2 -16 12 -14 14 -14 26 2 12 17 13 16 13 -5 0 -19 -4 -23 -24 -19
-18 4 -23 1 -18 -10 3 -9 0 -13 -8 -10 -17 5 -22 60 -6 70 16 11 26 10 26 -2z
m-103 -27 c0 -21 -15 -43 -29 -43 -6 0 -8 6 -5 14 3 8 -2 18 -11 22 -14 6 -11
9 13 14 17 4 30 8 31 9 0 0 1 -7 1 -16z m131 -84 c3 -66 -8 -84 -62 -98 -29
-7 -44 -16 -42 -26 3 -19 16 -32 16 -16 0 7 5 9 10 6 8 -5 7 -11 -1 -21 -9
-11 -15 -11 -25 -3 -11 9 -14 8 -14 0 0 -22 -54 -8 -58 14 -4 19 -3 19 10 1
14 -18 15 -17 36 9 20 25 21 30 7 45 -8 9 -20 32 -27 51 -6 19 -16 37 -22 41
-7 5 -3 8 9 9 11 1 36 2 55 3 19 2 49 10 65 19 17 9 32 16 35 17 3 0 7 -23 8
-51z m105 -26 c-7 -3 -13 -9 -13 -14 0 -5 11 -4 26 1 16 6 23 6 19 0 -3 -5
-21 -12 -40 -16 -18 -3 -36 -12 -39 -19 -3 -8 -15 -19 -28 -26 -20 -11 -21
-10 -11 3 7 8 10 17 7 20 -2 3 9 17 26 31 16 14 30 34 30 43 0 17 1 17 18 0
12 -13 14 -20 5 -23z m-470 -386 c-39 -43 -75 -107 -69 -122 3 -9 2 -13 -4
-10 -12 8 -13 -5 -1 -24 7 -10 14 -2 29 30 22 47 68 108 58 76 -4 -12 -2 -16
6 -11 8 5 9 0 4 -17 -15 -54 -36 -173 -35 -202 1 -20 5 -9 10 28 5 32 14 75
21 95 l11 35 9 -35 c5 -19 23 -66 41 -103 32 -68 32 -69 12 -85 -11 -10 -32
-36 -48 -59 -17 -27 -35 -43 -47 -43 -28 0 -25 14 8 40 21 16 22 19 5 10 -22
-10 -23 -9 -24 37 l-1 48 -9 -55 c-5 -30 -7 -80 -4 -110 4 -51 4 -53 -8 -27
-9 19 -13 64 -11 140 2 77 0 106 -7 92 -7 -15 -8 -11 -5 18 3 24 1 35 -6 31
-10 -6 -4 -141 9 -204 3 -19 2 -22 -6 -10 -5 8 -13 39 -17 68 -3 29 -10 55
-15 58 -5 3 -9 2 -9 -3 1 -16 28 -120 49 -183 29 -91 26 -101 -14 -55 -49 56
-72 109 -83 188 -11 88 1 96 17 10 11 -59 59 -179 68 -170 2 2 -7 37 -20 78
-33 103 -47 185 -45 255 l1 59 7 -55 c5 -46 7 -50 12 -25 3 17 3 7 1 -22 -2
-30 0 -54 6 -58 10 -6 17 92 11 148 -3 34 23 91 63 134 22 24 42 41 45 38 3
-3 -4 -15 -15 -28z m-429 -129 c-6 -103 8 -162 49 -206 l22 -24 -21 -17 c-17
-14 -19 -19 -7 -29 7 -7 13 -25 13 -40 0 -15 6 -46 13 -69 12 -40 42 -69 113
-109 10 -6 20 -20 22 -30 3 -16 1 -17 -7 -4 -6 8 -11 11 -11 7 0 -11 -76 43
-124 88 -21 20 -40 34 -43 31 -6 -5 25 -34 121 -111 38 -30 62 -55 53 -55 -8
0 -20 7 -27 15 -7 8 -20 15 -29 15 -9 0 -22 5 -29 12 -7 7 -12 9 -12 5 0 -4
-12 -1 -27 6 -16 8 -39 18 -53 22 -24 7 -24 6 -6 -8 18 -13 15 -14 -30 -7 -27
4 -53 6 -57 3 -10 -6 -87 44 -87 57 0 6 7 10 15 10 19 0 93 47 118 75 13 14
20 16 23 8 12 -27 22 -11 12 17 -5 17 -8 42 -6 55 3 13 0 26 -6 29 -6 2 1 5
16 5 39 1 43 17 14 52 -14 17 -26 36 -26 43 0 20 -31 43 -68 51 -18 4 -29 11
-26 17 4 6 10 6 17 -1 25 -25 36 -8 57 84 12 52 23 95 26 95 2 0 1 -42 -2 -92z
m-46 -138 c17 -16 35 -42 38 -57 7 -25 3 -23 -39 21 -26 27 -44 53 -41 57 7
12 7 12 42 -21z m304 -72 c-4 -94 11 -156 52 -218 30 -46 99 -94 126 -87 25 6
26 -1 3 -20 -17 -14 -17 -14 -1 -9 46 14 12 -49 -36 -67 -21 -8 -88 51 -110
98 -10 20 -22 32 -30 29 -15 -6 -74 57 -121 130 -26 41 -55 132 -55 173 0 2
13 3 29 3 32 0 81 -40 81 -67 0 -10 8 -45 18 -78 l18 -60 -2 133 c-2 120 -1
133 14 130 15 -3 17 -15 14 -90z m277 -95 c1 -7 -4 -13 -10 -13 -6 0 -8 7 -5
16 3 9 2 12 -5 9 -5 -4 -7 -16 -3 -27 4 -14 3 -18 -6 -13 -7 4 -10 2 -9 -6 5
-23 -30 -79 -49 -79 -15 -1 -15 -2 2 -15 11 -8 16 -15 10 -16 -5 0 1 -4 14 -9
25 -11 29 -25 7 -33 -21 -9 -55 40 -55 77 0 35 24 76 44 76 8 0 16 14 20 32 3
17 12 38 18 46 11 13 14 11 19 -9 4 -13 7 -30 8 -36z m11 -100 c6 -16 15 -36
21 -47 8 -14 7 -22 -3 -32 -26 -25 -40 -20 -44 16 -11 84 5 122 26 63z m-138
-78 c4 -5 5 -11 3 -13 -8 -9 -36 16 -71 63 l-37 50 49 -45 c27 -25 52 -49 56
-55z m92 -41 c11 -30 6 -37 -14 -19 -11 10 -20 22 -20 27 0 15 28 9 34 -8z
m-316 -426 c-4 -14 -109 -71 -116 -64 -2 3 3 15 12 28 23 33 112 64 104 36z"/>
<path d="M1120 2477 c0 -7 5 -18 12 -25 17 -17 3 -26 -20 -13 -12 6 -27 11
-34 11 -17 -1 32 -27 83 -45 36 -13 39 -13 39 4 0 10 -18 32 -40 50 -24 19
-40 27 -40 18z"/>
<path d="M1541 2381 c13 -18 27 -27 36 -24 8 3 11 9 6 12 -5 3 -12 14 -16 24
-3 9 -16 17 -27 17 -21 0 -21 0 1 -29z"/>
<path d="M1705 2240 c13 -51 6 -112 -15 -125 -12 -7 -70 93 -70 121 0 11 6 27
12 35 7 7 0 2 -16 -12 l-28 -26 26 -51 c14 -27 39 -70 56 -95 16 -25 30 -49
30 -53 0 -5 -5 -2 -10 6 -8 13 -10 12 -10 -3 0 -23 -28 -53 -60 -62 -34 -10
-50 -24 -50 -44 1 -14 2 -14 11 2 5 9 16 17 23 17 11 0 86 50 114 77 18 17 60
16 78 -1 16 -16 19 -30 5 -22 -5 4 -7 -3 -4 -14 4 -13 0 -20 -9 -20 -23 0 -29
12 -15 28 10 13 8 14 -15 9 -16 -4 -28 -3 -30 4 -2 6 -12 1 -23 -11 -16 -18
-16 -20 -2 -14 10 3 17 1 17 -5 0 -6 7 -11 15 -11 13 0 14 -4 5 -22 -10 -21
-10 -21 3 -5 8 9 26 17 41 17 14 0 26 3 27 8 4 41 12 68 20 70 5 2 9 10 9 18
0 9 -4 12 -10 9 -5 -3 -35 -8 -66 -10 l-56 -5 7 33 c6 31 13 78 14 105 1 7 6
10 12 7 6 -4 8 -13 5 -21 -4 -9 2 -14 15 -14 11 0 17 -4 14 -10 -4 -6 -2 -17
5 -25 9 -11 4 -17 -25 -31 -43 -20 -41 -28 4 -13 24 9 35 8 47 -2 10 -8 18 -9
22 -2 4 5 21 13 37 17 35 9 75 43 75 65 0 12 -4 10 -14 -5 -15 -20 -93 -50
-104 -40 -3 3 0 6 7 6 7 0 10 4 7 9 -3 5 1 12 10 15 8 3 12 2 9 -4 -8 -13 -2
-13 28 1 34 16 52 51 38 75 -10 18 -10 17 -11 -3 0 -16 -12 -29 -41 -43 -22
-12 -45 -20 -51 -18 -6 2 8 12 30 22 22 10 42 27 45 37 6 23 -11 26 -20 3 -3
-8 -11 -13 -18 -10 -7 2 -15 -4 -18 -15 -6 -24 -34 -25 -40 -1 -4 15 -5 15 -6
-2 -1 -15 -4 -16 -16 -6 -18 15 -19 37 -2 43 7 3 5 6 -5 6 -10 1 -18 6 -18 12
0 12 -38 49 -51 49 -4 0 -1 -23 6 -50z"/>
<path d="M1577 2213 c-11 -11 -7 -46 9 -78 8 -16 12 -22 10 -13 -7 23 21 12
29 -12 3 -9 15 -26 26 -36 14 -13 7 7 -22 61 -23 44 -43 81 -44 83 -1 1 -5 -1
-8 -5z"/>
<path d="M1179 2138 l-23 -31 32 18 c18 11 32 25 32 32 0 22 -18 14 -41 -19z"/>
<path d="M1246 2122 c-8 -25 -64 -65 -79 -56 -8 6 -8 3 1 -8 12 -15 16 -15 42
0 16 9 35 29 41 44 6 15 16 25 22 21 6 -3 7 -1 3 5 -11 17 -24 15 -30 -6z"/>
<path d="M1915 2101 c-3 -5 -19 -12 -35 -16 -30 -7 -38 -19 -21 -29 5 -3 14 1
21 9 7 8 16 12 21 10 4 -3 13 4 19 15 10 20 7 29 -5 11z"/>
<path d="M1263 2045 c-55 -59 -34 -59 24 0 24 25 38 45 31 45 -7 0 -32 -20
-55 -45z"/>
<path d="M1300 1992 c-13 -20 -35 -47 -47 -59 -34 -33 -28 -41 22 -29 57 15
69 27 19 19 l-39 -6 23 25 c12 13 22 30 22 36 0 7 7 12 15 12 8 0 15 9 15 20
0 11 -1 20 -2 20 -2 0 -14 -17 -28 -38z"/>
<path d="M1877 1981 c7 -27 -23 -35 -32 -8 l-8 22 -4 -22 c-2 -13 -11 -23 -19
-23 -10 0 -8 -6 7 -24 12 -14 28 -22 38 -19 11 3 21 -2 24 -11 4 -10 1 -16 -8
-16 -11 0 -10 -7 6 -34 23 -39 47 -62 55 -53 3 3 10 30 14 59 l9 53 -2 -52
c-2 -54 7 -62 18 -14 10 47 -10 104 -44 123 -22 12 -28 13 -25 3 3 -7 11 -16
18 -18 14 -6 20 -63 7 -72 -5 -3 -7 -22 -4 -42 4 -26 3 -34 -5 -29 -7 4 -11
31 -10 65 1 37 -4 70 -16 94 -18 40 -27 48 -19 18z"/>
<path d="M1383 1948 c-35 -12 -49 -34 -33 -53 6 -7 8 -21 4 -31 -5 -16 -4 -16
5 -4 6 8 8 27 5 41 -4 23 -1 28 25 37 17 6 31 13 31 16 0 4 -1 6 -2 5 -2 -1
-17 -6 -35 -11z"/>
<path d="M1657 1948 c2 -5 -1 -8 -6 -8 -6 0 -11 -4 -11 -9 0 -15 50 -5 68 13
15 15 14 16 -20 14 -20 -2 -34 -6 -31 -10z"/>
<path d="M2509 1778 c-17 -18 -41 -54 -55 -80 -13 -27 -29 -48 -34 -48 -5 0
-14 -10 -21 -21 -11 -21 -11 -21 14 -3 14 11 37 38 52 61 30 48 79 93 101 93
8 0 14 7 14 15 0 26 -40 16 -71 -17z"/>
<path d="M1394 1695 c-12 -8 -24 -12 -26 -9 -3 2 -9 -1 -15 -8 -19 -26 -83
-178 -83 -198 0 -11 -3 -19 -7 -19 -19 3 -33 -2 -33 -11 0 -5 7 -10 16 -10 9
0 14 -6 11 -14 -3 -7 11 -34 31 -59 21 -26 58 -72 83 -104 26 -32 66 -93 90
-137 52 -93 119 -166 153 -166 16 0 32 -13 51 -41 16 -22 47 -54 69 -72 44
-34 65 -57 66 -71 0 -4 -34 -43 -76 -86 -54 -56 -94 -87 -140 -109 -36 -17
-71 -31 -79 -31 -7 0 -16 15 -20 33 -30 146 -50 210 -77 252 -74 112 -183 135
-366 76 -63 -21 -154 -56 -183 -71 -9 -5 -32 -12 -51 -15 -31 -6 -36 -4 -43
17 -8 21 -8 21 -12 -9 -3 -20 -10 -33 -19 -33 -8 0 -27 -18 -42 -40 -36 -52
-58 -51 -113 5 -38 38 -45 42 -46 25 -1 -11 4 -20 11 -20 7 0 22 -11 32 -25
10 -14 24 -25 31 -25 26 0 23 -22 -8 -58 -30 -34 -99 -167 -99 -191 0 -15 -23
-14 -38 1 -9 9 -12 9 -12 0 0 -6 11 -14 24 -18 20 -5 24 -11 22 -39 -2 -18 0
-38 4 -45 10 -17 -7 -122 -22 -131 -7 -5 -26 -9 -41 -9 -16 0 -43 -11 -61 -25
-18 -14 -37 -25 -41 -25 -5 0 -16 -7 -25 -15 -10 -9 -47 -24 -83 -34 -54 -15
-67 -16 -71 -5 -4 10 5 14 31 14 34 0 35 1 17 14 -13 10 -21 11 -25 4 -4 -6
-15 -8 -25 -3 -13 5 -15 9 -6 12 6 3 10 9 6 14 -3 5 4 9 15 9 10 0 21 3 23 8
2 4 16 17 31 29 23 18 32 20 46 11 11 -7 26 -8 37 -3 11 5 23 9 28 9 10 1 38
44 55 82 5 12 15 24 22 26 7 2 13 12 15 21 2 13 -5 17 -29 16 -27 0 -29 -2
-12 -9 18 -7 19 -8 3 -15 -10 -4 -25 -4 -34 -1 -13 5 -11 10 10 28 14 13 27
33 29 46 2 13 8 27 13 30 6 4 10 16 11 27 0 11 8 58 17 105 9 47 24 122 32
167 18 91 37 121 48 77 4 -14 9 -24 11 -22 3 2 0 21 -6 41 -9 33 -12 36 -29
27 -11 -6 -20 -7 -20 -2 0 13 25 33 32 26 3 -3 9 11 12 30 7 39 27 54 76 59
17 2 38 11 47 19 11 12 23 14 45 7 20 -5 38 -4 52 3 36 18 87 72 102 107 23
54 15 60 -11 9 -33 -63 -80 -98 -133 -98 -31 0 -44 5 -52 20 -6 11 -16 18 -22
14 -7 -4 -7 -9 1 -14 16 -10 -35 -62 -57 -58 -16 3 -18 14 -10 62 6 37 -20 27
-28 -11 -4 -21 -8 -40 -9 -43 0 -3 -15 -34 -32 -70 -33 -69 -41 -102 -73 -304
-34 -208 -44 -226 -256 -422 -36 -34 -44 -48 -44 -77 0 -54 23 -71 84 -63 59
8 164 54 196 86 14 14 32 21 53 19 18 -1 44 4 59 11 31 14 31 17 33 165 2 133
28 197 120 295 29 31 59 69 68 86 13 25 23 31 51 32 19 1 93 24 163 51 256 99
330 103 409 24 56 -56 85 -143 99 -295 6 -58 11 -78 22 -78 37 0 219 147 301
242 49 58 49 78 -2 117 -17 14 -53 48 -81 77 -27 28 -60 55 -72 58 -31 10 -94
88 -137 171 -20 39 -74 114 -121 169 -77 91 -83 101 -79 135 9 73 55 181 91
213 11 10 37 24 59 32 33 12 35 15 14 15 -14 1 -35 -6 -46 -14z m-1036 -1352
c-40 -84 -71 -116 -82 -87 -6 15 58 94 76 94 5 0 8 -3 6 -7z"/>
<path d="M1508 1683 c12 -10 31 -29 42 -43 l21 -25 -12 25 c-12 25 -48 59 -63
60 -4 0 1 -8 12 -17z"/>
<path d="M1381 1624 c0 -11 6 -48 14 -84 l13 -65 1 71 c1 52 -3 75 -14 84 -12
10 -15 9 -14 -6z"/>
<path d="M979 1595 c-13 -20 -38 -113 -59 -215 -12 -58 -28 -118 -35 -135 -18
-43 -27 -75 -21 -75 11 0 56 88 56 108 0 12 9 48 19 79 37 110 66 282 40 238z"/>
<path d="M1344 1510 c9 -82 27 -169 37 -176 9 -5 7 10 -16 136 -19 112 -30
132 -21 40z"/>
<path d="M2662 1510 c-1 -19 -20 -71 -42 -114 -22 -43 -40 -84 -40 -91 0 -7
-11 -24 -25 -39 -14 -15 -25 -36 -25 -46 0 -10 -4 -22 -10 -25 -12 -7 -193
-224 -235 -280 -34 -47 -12 -31 57 40 26 27 48 55 48 62 0 7 6 13 13 13 7 0
44 38 83 85 38 47 73 85 77 85 5 0 5 5 2 10 -4 6 -10 8 -15 5 -11 -7 -7 22 5
32 4 4 5 2 1 -4 -4 -7 -3 -13 3 -13 5 0 18 25 27 55 10 30 21 52 26 49 4 -3 8
2 8 11 0 8 11 38 26 66 18 37 24 62 21 92 -3 39 -4 40 -5 7z"/>
<path d="M1651 1485 c0 -5 15 -39 34 -75 19 -36 34 -60 34 -55 0 6 -15 39 -34
75 -19 36 -34 61 -34 55z"/>
<path d="M850 1415 c-7 -9 -27 -23 -44 -32 -17 -9 -44 -30 -60 -47 -31 -33
-46 -24 -26 14 6 12 10 24 7 26 -2 2 -12 -15 -22 -38 -36 -86 -51 -110 -77
-124 -30 -15 -48 -37 -24 -28 13 5 16 -1 16 -28 0 -19 7 -43 16 -54 14 -18 15
-18 11 11 -3 17 -8 40 -12 52 -5 16 0 27 18 43 14 12 31 35 37 51 7 16 17 29
22 29 6 0 37 21 70 46 l61 46 -5 -28 c-3 -16 -2 -49 2 -74 7 -43 8 -42 9 23 0
38 6 77 12 88 14 27 7 45 -11 24z"/>
<path d="M1026 1344 c-37 -31 -66 -58 -63 -60 7 -7 88 50 121 85 47 49 16 36
-58 -25z"/>
<path d="M1142 1316 c-43 -36 -82 -72 -86 -81 -3 -9 -11 -13 -16 -10 -6 4 -9
1 -8 -6 2 -6 -3 -14 -11 -17 -9 -3 -11 0 -6 8 5 9 4 11 -4 6 -6 -4 -9 -11 -6
-15 6 -10 -28 -41 -77 -70 -21 -13 -38 -24 -38 -27 0 -7 35 9 65 30 30 21 275
237 275 243 0 8 -13 -1 -88 -61z"/>
<path d="M1436 1340 c10 -40 37 -81 64 -98 l25 -16 -26 30 c-15 16 -36 47 -48
69 -14 25 -19 31 -15 15z"/>
<path d="M1575 1172 c12 -9 24 -25 28 -35 4 -10 11 -16 16 -12 17 10 1 34 -32
50 -31 14 -31 14 -12 -3z"/>
<path d="M2383 1143 c-7 -3 -13 -15 -13 -27 0 -12 -9 -28 -20 -36 -24 -17 -26
-27 -4 -27 8 0 24 13 35 29 22 30 22 68 2 61z"/>
<path d="M1761 1117 c-1 -29 26 -93 36 -84 2 3 -1 16 -8 29 -7 12 -16 37 -20
53 l-7 30 -1 -28z"/>
<path d="M1825 1110 c20 -35 68 -91 87 -101 16 -8 23 -8 29 2 14 22 10 35 -4
15 -12 -17 -18 -13 -67 41 -30 32 -50 51 -45 43z"/>
<path d="M2272 1065 c-7 -22 -12 -53 -12 -70 0 -22 -13 -43 -52 -84 -30 -31
-39 -43 -20 -28 37 30 48 33 55 15 4 -10 6 -10 6 0 1 7 17 34 36 59 28 36 33
49 23 60 -6 8 -14 31 -18 51 l-6 37 -12 -40z"/>
<path d="M1644 1025 c-5 -27 -2 -41 10 -53 14 -15 15 -14 7 15 -6 21 -5 35 2
42 8 8 8 14 0 22 -9 9 -13 2 -19 -26z"/>
<path d="M767 1004 c-21 -24 -34 -44 -28 -44 5 0 12 -17 14 -37 4 -38 4 -38 5
6 1 30 10 55 28 78 38 50 25 48 -19 -3z"/>
<path d="M1854 951 c12 -41 26 -64 26 -42 0 14 -27 81 -33 81 -3 0 0 -18 7
-39z"/>
<path d="M633 889 c-69 -64 -82 -79 -66 -79 12 1 146 130 140 137 -3 2 -36
-24 -74 -58z"/>
<path d="M2095 788 c-30 -16 -65 -50 -65 -62 1 -6 8 -2 18 9 9 12 32 27 50 34
35 15 51 31 30 31 -7 0 -22 -6 -33 -12z"/>
<path d="M1730 614 c-52 -40 -101 -72 -108 -69 -15 5 -53 -32 -114 -113 -46
-59 -45 -76 3 -41 18 13 60 38 93 54 42 21 61 36 61 49 0 14 9 19 39 22 21 2
48 12 60 22 12 10 43 33 70 51 40 26 56 31 82 26 72 -13 195 -198 209 -315 4
-30 11 -62 15 -70 5 -10 1 -42 -10 -81 -16 -60 -19 -113 -7 -126 10 -9 92 -16
84 -7 -5 5 -14 9 -20 9 -7 1 -11 6 -9 13 1 7 -4 12 -10 13 -7 1 -2 5 12 9 24
8 24 8 3 9 -16 1 -23 7 -23 21 0 11 3 20 8 20 4 0 8 26 9 58 1 31 5 67 8 79 3
12 -1 28 -10 37 -21 21 -19 43 5 51 31 10 25 35 -7 34 -24 0 -25 -2 -9 -8 15
-6 16 -10 7 -16 -16 -9 -33 13 -27 37 2 9 1 18 -3 20 -3 2 -17 25 -31 52 -13
27 -46 77 -73 112 -39 51 -47 67 -42 91 l6 28 -14 -24 c-14 -24 -47 -38 -47
-20 0 20 -68 8 -110 -21 -25 -16 -61 -40 -80 -53 -79 -53 -95 -39 -24 20 148
123 151 142 4 27z"/>
</g>
</svg>
