<?xml version="1.0" standalone="no"?>
<!DOCTYPE svg PUBLIC "-//W3C//DTD SVG 20010904//EN"
 "http://www.w3.org/TR/2001/REC-SVG-20010904/DTD/svg10.dtd">
<svg version="1.0" xmlns="http://www.w3.org/2000/svg"
 width="300.000000pt" height="300.000000pt" viewBox="0 0 300.000000 300.000000"
 preserveAspectRatio="xMidYMid meet">
<metadata>
Created by potrace 1.10, written by Peter Selinger 2001-2011
</metadata>
<g transform="translate(0.000000,300.000000) scale(0.100000,-0.100000)"
fill="#000000" stroke="none">
<path d="M1345 2988 c-22 -5 -58 -12 -81 -17 -45 -8 -165 -70 -204 -105 -14
-12 -49 -38 -79 -56 -46 -29 -59 -44 -85 -100 -26 -57 -31 -81 -39 -195 -9
-150 -11 -206 -9 -255 1 -19 -1 -58 -4 -87 -9 -76 17 -154 66 -203 22 -22 47
-40 55 -40 8 0 19 -17 25 -42 33 -122 154 -237 289 -271 l54 -14 -44 -22 c-24
-13 -58 -24 -76 -24 -21 -1 -50 -14 -80 -37 -42 -31 -50 -44 -71 -110 -19 -62
-25 -117 -37 -324 -7 -138 -10 -257 -5 -265 4 -9 11 -38 15 -66 4 -27 16 -77
27 -110 16 -46 21 -81 19 -150 -2 -103 17 -191 55 -248 29 -44 37 -46 53 -10
19 44 75 133 82 133 10 0 33 -133 27 -151 -3 -8 1 -26 8 -41 14 -26 13 -28
-18 -44 -42 -21 -48 -31 -48 -76 0 -49 18 -58 115 -58 76 0 127 15 139 42 5
11 7 11 12 0 12 -27 63 -42 139 -42 98 0 115 9 115 60 0 41 -17 66 -57 81 -22
8 -23 10 -10 36 8 16 12 34 9 42 -6 17 19 151 27 151 8 0 63 -91 82 -132 16
-37 24 -35 53 10 33 49 56 141 56 223 0 59 -19 189 -35 240 -4 13 3 20 29 29
20 6 38 15 41 20 3 5 -3 30 -14 57 -10 26 -24 75 -31 108 -6 33 -13 67 -16 75
-2 10 9 23 31 34 21 11 38 30 42 44 12 50 -6 255 -30 332 -21 67 -28 78 -72
112 -31 24 -57 36 -68 32 -9 -3 -43 7 -74 22 l-58 27 55 14 c136 34 257 148
290 271 6 25 17 42 25 42 8 0 33 18 55 40 49 49 74 127 66 203 -3 29 -5 68 -4
87 3 48 0 103 -9 255 -8 114 -13 138 -40 196 -26 56 -38 70 -84 98 -30 18 -65
43 -79 56 -38 35 -158 98 -204 106 -23 4 -61 12 -86 18 -55 12 -250 12 -305
-1z m285 -14 c36 -8 83 -18 105 -22 43 -9 144 -63 212 -115 23 -18 59 -44 81
-58 30 -21 45 -42 67 -95 24 -61 27 -81 26 -165 -1 -52 3 -108 9 -125 7 -18 9
-53 5 -90 -5 -53 -9 -61 -24 -57 -22 6 -50 -21 -53 -50 -1 -12 -4 28 -7 88 -3
61 -3 111 1 113 4 2 3 15 -3 29 -5 14 -7 33 -4 43 3 9 -4 28 -15 43 -25 32
-25 33 3 41 20 5 17 9 -31 42 -30 19 -68 42 -85 49 l-32 14 50 1 c28 1 59 5
70 10 14 6 -2 9 -50 8 -38 -1 -101 2 -138 7 l-68 8 35 36 c51 52 45 64 -6 14
-36 -34 -53 -42 -104 -50 l-61 -9 34 44 c39 52 67 102 59 109 -2 3 -12 -10
-22 -29 -45 -89 -150 -176 -198 -164 -43 11 -108 68 -149 132 -22 35 -42 62
-45 60 -6 -6 24 -59 61 -108 l34 -44 -61 9 c-51 8 -68 16 -103 50 -52 50 -58
38 -7 -14 l35 -36 -68 -8 c-37 -5 -99 -8 -138 -7 -48 1 -64 -2 -50 -8 11 -5
43 -9 70 -10 l50 -1 -32 -14 c-17 -7 -55 -30 -85 -49 -48 -33 -51 -37 -30 -42
l22 -6 -20 -33 c-11 -18 -18 -39 -15 -47 3 -8 1 -26 -4 -41 -6 -14 -7 -27 -3
-29 4 -2 5 -52 4 -113 -4 -100 -5 -107 -16 -75 -9 29 -16 35 -38 35 -25 -1
-28 3 -34 53 -4 33 -2 70 5 94 7 22 11 79 10 127 -5 144 31 222 131 287 38 24
72 48 75 53 11 18 141 85 180 93 22 4 67 14 100 22 79 19 185 19 265 0z m-274
-299 c27 -4 70 -18 96 -31 l47 -25 43 23 c47 24 171 50 176 37 2 -5 40 -9 83
-9 49 0 78 -4 74 -10 -3 -5 18 -21 47 -36 89 -45 101 -55 83 -68 -14 -10 -14
-14 2 -36 18 -25 19 -38 29 -250 5 -109 2 -142 -20 -260 -31 -155 -51 -203
-111 -263 -93 -93 -225 -139 -400 -139 -184 0 -313 44 -409 138 -62 61 -82
110 -112 265 -22 115 -25 151 -21 259 8 177 14 227 32 254 15 22 15 25 0 34
-14 7 -9 14 31 38 27 16 61 35 77 42 15 6 27 16 27 22 0 6 31 10 75 10 48 0
75 4 75 11 0 6 6 9 14 6 7 -3 35 -8 62 -12z m-422 -499 c20 -67 48 -214 44
-227 -6 -19 -72 47 -94 95 -26 56 -33 153 -12 174 27 27 46 13 62 -42z m1194
42 c15 -15 15 -86 0 -146 -8 -32 -25 -59 -56 -91 -25 -25 -47 -40 -49 -34 -5
14 22 157 43 229 16 55 35 69 62 42z m-728 -632 c0 -14 84 -76 103 -76 17 0
97 63 97 77 0 7 8 13 19 13 13 0 27 -17 44 -52 13 -29 23 -54 22 -56 -2 -2
-27 4 -56 12 -67 20 -88 20 -111 -1 -17 -15 -19 -15 -36 0 -23 21 -44 21 -111
1 -29 -8 -54 -14 -56 -12 -2 2 8 27 22 56 18 34 32 52 45 52 10 0 18 -6 18
-14z m190 1 c0 -2 -20 -18 -45 -36 l-45 -32 -45 32 c-25 18 -45 34 -45 36 0 2
41 3 90 3 50 0 90 -1 90 -3z m-278 -23 c-28 -19 -51 -60 -30 -52 10 4 13 -2
12 -21 -1 -14 -2 -50 -3 -78 -1 -48 -3 -53 -23 -54 -18 -1 -19 -2 -5 -6 10 -3
25 1 34 8 13 11 18 10 34 -10 12 -14 17 -31 14 -43 -4 -10 -2 -33 4 -51 6 -17
12 -68 15 -112 2 -44 7 -93 11 -110 l7 -30 -22 30 c-27 39 -102 186 -125 248
l-18 48 32 44 32 45 -21 35 -22 36 28 37 c30 40 43 52 59 52 5 0 -1 -7 -13
-16z m422 -35 l29 -41 -22 -28 c-11 -16 -21 -32 -21 -35 0 -4 14 -27 32 -51
l32 -44 -30 -73 -29 -72 -40 0 c-39 0 -40 1 -38 35 7 117 20 166 65 248 10 18
18 38 18 45 -1 7 -6 2 -14 -11 -12 -23 -12 -23 -22 10 -11 33 -8 58 4 58 4 0
20 -19 36 -41z m-488 6 c-11 -8 -16 -15 -12 -15 5 0 3 -7 -4 -15 -10 -12 -8
-21 15 -50 l27 -36 -36 -44 -37 -44 27 -63 c38 -91 92 -197 126 -245 27 -41
29 -47 26 -135 l-3 -93 -35 3 c-19 2 -58 12 -86 21 l-52 17 -21 -40 c-12 -23
-19 -32 -15 -21 3 11 8 61 10 110 2 50 9 114 16 143 9 40 8 68 -1 123 -7 39
-13 110 -13 157 0 67 -2 79 -8 52 -5 -19 -7 -111 -5 -205 1 -93 0 -202 -2
-241 l-5 -71 -50 -2 -50 -1 7 158 c9 227 23 332 49 355 12 10 15 15 7 11 -8
-4 -19 0 -27 10 -11 15 -13 14 -20 -16 -4 -18 -11 -76 -15 -128 l-7 -95 2 100
c2 68 10 123 25 171 19 63 28 75 67 104 25 18 47 30 50 28 2 -3 -14 -17 -36
-32 -41 -27 -45 -39 -34 -94 9 -46 29 -28 32 30 2 29 5 56 8 60 11 17 24 7 25
-19 1 -25 2 -24 13 11 7 22 21 43 32 47 29 11 31 10 10 -6z m542 -13 c11 -14
12 -14 12 4 0 10 4 15 8 9 4 -5 13 -11 20 -13 8 -1 27 -12 43 -24 31 -23 70
-124 68 -177 -1 -16 -5 -6 -11 23 -5 27 -18 62 -29 77 -10 15 -19 34 -19 42 0
9 -13 25 -30 37 -16 12 -30 18 -30 15 0 -11 64 -129 77 -143 19 -20 23 -46 26
-177 2 -119 2 -120 -22 -123 -22 -3 -23 -1 -20 41 2 25 0 43 -5 40 -5 -3 -6 0
-4 8 3 8 -2 23 -12 34 -13 14 -20 44 -24 100 -7 99 -23 186 -25 140 l-2 -30
-14 25 c-8 14 -14 21 -15 16 0 -5 9 -24 20 -42 17 -27 20 -46 18 -110 -3 -76
-3 -77 -37 -95 -19 -10 -36 -17 -38 -15 -2 1 10 36 27 76 l30 73 -36 43 -35
44 20 26 c25 32 26 47 5 80 -16 23 -16 24 2 18 11 -4 25 -14 32 -22z m-364
-28 c9 -4 16 -18 16 -33 0 -15 6 -35 13 -45 11 -15 11 -31 1 -90 -7 -39 -13
-86 -13 -103 -1 -40 -7 -41 -43 -6 -28 26 -28 28 -28 149 0 118 3 130 32 133
3 1 13 -2 22 -5z m199 -3 c4 0 7 -56 7 -124 0 -122 0 -124 -28 -150 -35 -34
-42 -34 -42 -1 0 48 -23 165 -30 153 -10 -15 -50 -2 -50 18 0 11 6 14 24 9 29
-7 45 10 53 58 5 31 3 36 -13 36 -16 0 -17 -2 -4 -11 12 -8 10 -9 -10 -7 -23
3 -25 0 -22 -29 3 -28 0 -33 -17 -33 -17 0 -21 6 -21 29 0 16 -6 32 -12 34 -7
3 1 6 17 6 17 1 36 5 44 10 11 7 67 9 104 2z m-273 -36 c0 -18 -4 -23 -15 -19
-8 4 -15 15 -15 25 0 10 7 19 15 19 9 0 15 -9 15 -25z m350 18 c-1 -5 -12 -28
-25 -53 l-24 -45 -1 53 c0 49 1 52 25 52 14 0 25 -3 25 -7z m-345 -83 c3 -5 3
-15 0 -20 -7 -12 -45 5 -45 20 0 13 37 13 45 0z m175 -185 c9 -41 2 -55 -30
-55 -35 0 -38 13 -24 90 20 104 26 114 36 55 5 -27 13 -68 18 -90z m417 -37
c-2 -24 -4 -5 -4 42 0 47 2 66 4 43 2 -24 2 -62 0 -85z m-509 -24 c-7 -6 -23
-15 -35 -19 -22 -6 -23 -3 -23 40 l0 46 36 -27 c28 -22 33 -30 22 -40z m162
31 c-13 -14 -30 -25 -38 -25 -12 0 -14 -13 -9 -76 3 -42 3 -73 -1 -69 -4 4 -9
37 -12 73 l-5 67 40 31 c46 36 59 36 25 -1z m238 7 c14 -14 23 -52 36 -148 10
-71 28 -160 40 -197 l23 -69 -26 -10 c-52 -20 -146 -30 -199 -22 l-52 9 -4
175 c-4 180 -13 230 -42 230 -8 0 -14 6 -11 13 9 29 42 11 66 -37 14 -27 26
-45 29 -38 2 6 -4 24 -12 41 -9 16 -16 32 -16 36 0 3 33 5 74 5 85 0 79 8 96
-115 12 -88 20 -119 26 -112 3 2 -2 51 -11 108 -12 77 -21 108 -36 121 -10 9
-19 19 -19 22 0 12 21 5 38 -12z m-332 -48 c18 -5 22 -13 22 -52 0 -26 2 -53
3 -61 4 -15 -28 -28 -71 -30 -17 -1 -31 8 -42 27 -11 17 -18 21 -18 11 0 -23
38 -59 55 -53 13 5 15 -7 15 -73 0 -43 4 -83 10 -89 7 -7 -7 -26 -40 -59 l-50
-49 -47 23 c-60 29 -145 82 -140 88 3 2 32 -5 66 -17 33 -11 74 -20 91 -20
l30 0 1 88 c0 48 2 112 3 142 1 30 -2 60 -7 67 -15 20 0 31 56 39 48 7 50 8
22 15 -27 6 -28 7 -5 8 14 0 35 -2 46 -5z m-459 -136 c-2 -24 -4 -5 -4 42 0
47 2 66 4 43 2 -24 2 -62 0 -85z m562 113 c7 -5 14 -26 15 -47 1 -35 -1 -39
-24 -39 -20 0 -26 7 -33 39 -7 29 -6 40 4 47 17 11 21 11 38 0z m-32 -121 c13
0 14 -17 12 -112 l-4 -113 25 -4 c41 -5 53 -36 19 -46 -17 -6 -34 6 -85 56
l-64 63 1 76 c1 41 3 67 6 58 6 -23 43 -24 43 -2 0 14 -3 14 -15 4 -8 -7 -15
-9 -15 -5 0 14 34 35 48 30 8 -3 20 -5 29 -5z m63 -110 c0 -103 -1 -110 -20
-110 -19 0 -20 7 -20 110 0 103 1 110 20 110 19 0 20 -7 20 -110z m-480 -62
c0 -5 -24 -8 -54 -8 -30 0 -57 3 -59 8 -3 4 21 7 54 7 32 0 59 -3 59 -7z m-14
-45 c-4 -16 -10 -40 -13 -56 -7 -35 -23 -45 -23 -15 0 13 -5 30 -10 38 -8 12
-10 9 -10 -13 0 -16 4 -36 9 -45 4 -9 11 -35 14 -57 3 -22 3 -34 0 -27 -2 6
-9 10 -13 7 -5 -3 -12 17 -16 44 -4 28 -10 49 -14 46 -3 -2 -7 1 -7 8 0 7 -3
31 -7 55 l-8 42 52 0 c52 0 52 0 46 -27z m208 -171 c10 -158 27 -305 38 -322
7 -12 8 -11 4 5 -6 25 -24 223 -30 333 -4 78 -3 82 17 82 12 0 42 21 69 47
l48 47 48 -47 c26 -26 57 -47 69 -47 20 0 21 -4 17 -87 -5 -102 -23 -299 -30
-328 -4 -16 -3 -17 5 -4 9 14 18 96 39 349 l7 85 40 -3 c22 -2 44 -7 49 -12 5
-5 5 -34 -1 -69 -5 -33 -6 -58 -1 -55 4 3 8 13 8 23 0 27 32 127 37 115 2 -6
-21 -114 -52 -240 -31 -126 -54 -238 -51 -250 3 -11 -1 -29 -9 -40 -8 -10 -15
-14 -15 -7 0 6 4 15 10 18 5 3 7 19 4 34 -3 16 1 55 11 86 9 31 14 60 11 63
-11 11 -39 -75 -44 -135 l-5 -61 -28 10 c-20 7 -39 7 -60 -1 -18 -6 -36 -11
-40 -11 -5 0 -9 110 -9 245 0 162 -4 245 -10 245 -7 0 -10 -81 -8 -245 2 -173
0 -245 -8 -245 -6 0 -25 5 -43 11 -22 8 -40 8 -61 0 -28 -9 -30 -9 -30 17 -1
32 -23 127 -39 162 -10 22 -11 21 -6 -15 9 -75 -12 -4 -64 217 -28 119 -51
219 -51 221 0 3 35 -15 79 -40 l79 -44 6 -107z m-120 -52 c15 -63 29 -122 32
-131 2 -9 -7 -31 -22 -48 -14 -17 -38 -54 -54 -82 l-27 -51 -22 45 c-49 102
-45 222 15 400 l28 82 12 -50 c6 -27 24 -102 38 -165z m645 118 c15 -63 13
-83 -3 -31 -23 70 -28 99 -18 88 5 -5 14 -31 21 -57z m-20 -35 c46 -152 45
-256 0 -350 l-22 -45 -27 51 c-16 28 -40 65 -54 82 -15 17 -24 39 -22 48 4 13
42 174 61 259 3 13 13 22 25 22 15 0 24 -14 39 -67z m-533 -405 c-3 -15 -1
-30 4 -33 6 -3 10 -11 10 -18 0 -8 -3 -8 -11 0 -6 6 -12 40 -14 75 -2 50 -1
57 7 33 4 -16 6 -42 4 -57z m137 -55 c27 -5 28 -9 26 -52 -3 -58 -12 -77 -49
-96 -43 -22 -142 -20 -171 4 l-24 19 55 -10 c67 -12 132 -3 162 22 22 19 20
19 -26 -1 -39 -17 -59 -20 -102 -14 -30 3 -54 9 -54 13 1 11 30 47 30 37 0 -4
9 2 20 15 27 32 26 32 -20 8 -22 -12 -43 -30 -46 -41 -3 -10 -8 -16 -11 -14
-22 23 132 135 167 121 8 -3 28 -8 43 -11z m152 3 c11 -7 23 -14 28 -15 25 -2
107 -75 106 -93 0 -7 -5 -3 -11 10 -6 12 -14 22 -18 22 -4 0 -24 11 -45 25
-53 37 -54 24 -1 -16 25 -19 46 -39 46 -46 0 -7 -23 -14 -55 -18 -46 -6 -62
-4 -102 16 -45 23 -48 26 -48 63 0 36 3 40 35 52 45 16 42 16 65 0z m-31 -136
c35 -11 107 -9 154 6 12 4 10 0 -7 -15 -34 -31 -135 -30 -181 2 -19 12 -36 29
-38 37 -4 13 -2 12 14 -1 10 -9 36 -22 58 -29z"/>
<path d="M1164 2416 c-29 -13 -79 -64 -70 -73 2 -3 22 5 45 16 48 25 110 27
151 6 35 -18 39 -8 9 24 -38 41 -82 50 -135 27z m100 -14 c2 -4 -14 -7 -37 -7
-23 0 -53 -4 -67 -8 -24 -8 -24 -7 -6 7 20 16 101 22 110 8z"/>
<path d="M1753 2423 c-22 -4 -73 -49 -73 -65 0 -5 13 -2 30 7 41 21 103 19
151 -6 23 -11 43 -19 45 -16 9 9 -41 60 -72 73 -34 14 -41 15 -81 7z m93 -29
c18 -14 18 -15 -6 -7 -14 4 -44 8 -67 8 -23 0 -37 3 -30 7 21 13 82 9 103 -8z"/>
<path d="M1305 2188 c-63 -22 -101 -22 -156 -2 -30 10 -58 13 -89 8 l-45 -7
45 -12 c157 -44 162 -45 205 -34 39 10 106 53 95 61 -3 2 -27 -4 -55 -14z"/>
<path d="M1640 2199 c0 -15 57 -48 100 -58 42 -9 49 -8 200 34 l45 12 -45 7
c-31 5 -59 2 -89 -8 -56 -20 -93 -20 -158 3 -29 10 -53 14 -53 10z"/>
<path d="M1372 1908 c-45 -28 -105 -40 -137 -28 -14 5 -25 6 -25 2 1 -23 50
-88 80 -104 47 -26 138 -21 180 10 l30 23 30 -22 c19 -14 49 -24 83 -27 72 -6
120 17 152 73 31 52 31 57 0 45 -32 -12 -78 -3 -137 26 -52 26 -97 31 -116 12
-9 -9 -15 -9 -24 0 -18 18 -79 13 -116 -10z m106 -4 c21 -15 25 -15 41 0 24
22 40 20 113 -14 34 -16 78 -30 96 -30 39 0 40 -8 4 -44 -58 -55 -154 -54
-210 1 -22 22 -26 23 -34 9 -20 -36 -106 -61 -159 -46 -32 9 -89 55 -89 72 0
4 15 8 33 8 17 0 59 13 92 29 71 35 83 36 113 15z"/>
<path d="M880 2168 c-8 -16 -8 -31 -1 -48 9 -23 10 -23 10 13 1 20 6 37 11 37
17 0 31 -51 29 -97 -2 -32 2 -48 16 -61 12 -11 15 -11 8 -2 -5 8 -10 38 -10
66 -1 84 -41 142 -63 92z"/>
<path d="M2082 2177 c-16 -19 -32 -99 -25 -125 3 -12 -1 -30 -8 -40 -12 -16
-12 -16 6 0 14 13 18 29 16 61 -2 46 12 97 29 97 5 0 10 -17 11 -37 0 -36 1
-36 10 -13 7 16 7 32 0 47 -12 26 -24 29 -39 10z"/>
<path d="M1200 1422 c0 -18 5 -23 22 -20 12 2 23 9 26 16 2 8 -2 10 -13 6 -10
-4 -21 -1 -26 7 -6 10 -9 8 -9 -9z"/>
<path d="M1497 874 c-14 -15 -6 -34 14 -34 14 0 19 5 17 17 -3 18 -20 27 -31
17z"/>
<path d="M933 1440 c0 -36 2 -50 4 -32 2 17 2 47 0 65 -2 17 -4 3 -4 -33z"/>
</g>
</svg>
