<?xml version="1.0" standalone="no"?>
<!DOCTYPE svg PUBLIC "-//W3C//DTD SVG 20010904//EN"
 "http://www.w3.org/TR/2001/REC-SVG-20010904/DTD/svg10.dtd">
<svg version="1.0" xmlns="http://www.w3.org/2000/svg"
 width="300.000000pt" height="182.000000pt" viewBox="0 0 300.000000 182.000000"
 preserveAspectRatio="xMidYMid meet">
<metadata>
Created by potrace 1.10, written by Peter Selinger 2001-2011
</metadata>
<g transform="translate(0.000000,182.000000) scale(0.100000,-0.100000)"
fill="#000000" stroke="none">
<path d="M131 1788 c-1 -20 -4 -45 -8 -55 -6 -15 -5 -16 9 -5 14 11 18 10 28
-5 9 -15 10 -14 4 7 -4 14 -13 41 -20 60 l-13 35 0 -37z"/>
<path d="M166 1798 c17 -57 96 -253 106 -265 6 -7 37 -27 69 -45 52 -27 60
-36 70 -72 6 -22 26 -57 44 -78 37 -40 46 -79 42 -188 -1 -50 4 -79 23 -124
27 -64 56 -90 44 -39 -4 15 -15 44 -24 63 -13 25 -18 62 -19 133 -1 103 -3
111 -58 195 -19 29 -33 59 -30 67 4 8 -2 16 -13 20 -11 3 -29 18 -40 32 -11
14 -20 21 -20 15 0 -9 -7 -8 -25 0 -14 6 -25 17 -25 25 0 7 -6 13 -14 13 -8 0
-18 5 -22 12 -4 7 -3 8 5 4 6 -4 0 14 -14 40 -14 26 -25 55 -25 65 0 11 -6 19
-14 19 -9 0 -16 17 -21 50 -4 31 -11 48 -18 43 -6 -4 -8 2 -5 15 4 15 2 22 -9
22 -10 0 -12 -6 -7 -22z"/>
<path d="M1855 1789 c-4 -17 -28 -51 -55 -78 -31 -31 -50 -58 -52 -77 -2 -20
-8 -29 -20 -28 -12 1 -18 -9 -23 -37 -7 -41 -74 -153 -97 -162 -8 -3 -8 -6 -1
-6 19 -2 94 96 105 136 6 21 21 50 33 65 13 15 27 38 31 50 4 13 24 40 46 61
46 45 75 107 49 107 -5 0 -12 -14 -16 -31z"/>
<path d="M2450 1805 c0 -4 14 -18 31 -33 18 -14 40 -40 50 -57 15 -24 19 -26
19 -10 0 12 -21 38 -50 63 -28 24 -50 40 -50 37z"/>
<path d="M1470 1765 c-7 -8 -15 -13 -19 -12 -3 2 -17 -8 -31 -21 l-25 -25 30
17 c41 22 70 45 63 51 -3 3 -11 -1 -18 -10z"/>
<path d="M1367 1668 c-3 -25 -16 -51 -33 -69 -15 -16 -24 -29 -18 -29 5 0 24
18 43 41 l35 40 13 -23 c12 -21 12 -21 6 11 -3 19 -14 42 -23 51 -17 17 -18
16 -23 -22z"/>
<path d="M41 1646 c19 -33 19 -35 2 -52 -17 -17 -17 -18 0 -11 10 4 21 7 23 7
2 0 4 13 4 29 0 19 -8 34 -25 45 l-24 16 20 -34z"/>
<path d="M0 1632 c0 -22 5 -44 10 -47 7 -4 8 8 4 37 -9 57 -14 61 -14 10z"/>
<path d="M2584 1638 c16 -45 37 -81 43 -75 2 3 -2 16 -10 29 -8 12 -17 35 -21
51 -4 15 -10 27 -15 27 -5 0 -3 -15 3 -32z"/>
<path d="M205 1600 c-4 -6 1 -30 10 -55 10 -24 15 -49 13 -55 -2 -6 -30 14
-62 45 -32 30 -61 53 -64 51 -2 -3 22 -33 54 -66 33 -34 62 -69 66 -78 5 -13
7 -12 7 6 l1 23 29 -20 c16 -12 33 -21 38 -21 18 0 43 -36 33 -46 -5 -5 8 -9
36 -9 l45 0 -28 22 c-15 13 -51 35 -78 50 -47 24 -52 31 -70 87 -11 34 -19 64
-17 69 3 11 -6 9 -13 -3z"/>
<path d="M1435 1599 c-11 -4 -14 -8 -8 -8 7 -1 15 -13 19 -28 10 -42 48 -105
86 -138 25 -23 28 -24 12 -5 -43 50 -75 108 -82 147 -6 35 -10 39 -27 32z"/>
<path d="M68 1528 c-3 -18 -2 -44 3 -58 5 -19 7 -11 8 33 1 63 -4 75 -11 25z"/>
<path d="M1206 1441 c-3 -21 -13 -44 -21 -51 -8 -7 -15 -17 -15 -23 0 -17 37
27 45 54 4 13 12 29 16 35 6 8 4 14 -5 17 -10 4 -15 -5 -20 -32z"/>
<path d="M721 1441 c-19 -15 -32 -33 -30 -39 2 -6 19 7 37 28 39 47 38 49 -7
11z"/>
<path d="M7 1414 c-9 -10 -9 -94 1 -94 4 0 5 21 3 47 -3 42 -2 46 12 34 22
-17 31 -49 19 -64 -5 -7 -6 -21 -1 -32 7 -18 8 -18 8 4 l1 24 25 -23 c13 -12
36 -40 51 -62 15 -21 29 -36 32 -33 6 6 -19 44 -60 91 -18 20 -33 43 -34 52
-3 20 -48 64 -57 56z"/>
<path d="M286 1146 c15 -24 20 -26 22 -13 2 9 9 17 16 17 18 0 49 -37 42 -49
-7 -10 17 -19 59 -22 35 -2 46 1 40 11 -4 6 -11 8 -16 4 -11 -6 -89 37 -109
61 -10 12 -16 13 -26 4 -11 -9 -18 -8 -31 2 -13 11 -13 8 3 -15z"/>
<path d="M2941 1099 c-17 -17 -31 -37 -31 -45 0 -8 -4 -14 -8 -14 -5 0 -9 -21
-11 -47 -1 -26 -6 -50 -10 -53 -5 -3 -16 -20 -25 -37 -9 -18 -20 -33 -25 -33
-13 0 -51 -36 -51 -49 0 -16 10 -14 46 8 26 16 40 39 73 124 23 58 41 110 41
116 0 5 11 18 25 29 14 11 25 23 25 26 0 14 -21 4 -49 -25z"/>
<path d="M348 1058 c-3 -16 -2 -28 3 -28 4 0 10 -13 14 -30 4 -16 10 -30 14
-30 4 0 17 -9 30 -21 21 -20 21 -22 5 -47 l-17 -27 21 18 c11 10 39 21 62 24
42 6 38 23 -5 23 -29 0 -95 47 -95 68 -1 9 -7 31 -14 47 l-13 30 -5 -27z"/>
<path d="M576 963 c-4 -10 3 -26 18 -42 14 -15 32 -44 40 -66 13 -35 15 -37
15 -13 1 36 -14 75 -43 109 -20 24 -25 26 -30 12z"/>
<path d="M151 911 c8 -10 51 -62 96 -116 102 -121 183 -238 194 -279 8 -28 8
-27 4 9 -6 57 -131 234 -253 363 -42 43 -65 57 -41 23z"/>
<path d="M543 869 c12 -42 30 -239 24 -245 -4 -4 -22 5 -41 20 -44 33 -52 33
-21 0 14 -15 25 -31 25 -35 0 -5 6 -9 14 -9 12 0 14 -16 8 -69 -1 -8 -9 -5
-22 10 -22 27 -27 19 -7 -12 10 -17 9 -22 -7 -35 -11 -8 -15 -14 -9 -14 6 0
16 7 23 15 16 19 30 10 30 -20 0 -31 10 -55 22 -55 6 0 6 6 -1 14 -9 11 -10
69 -5 224 l7 210 -23 12 c-21 11 -22 11 -17 -11z"/>
<path d="M2978 840 c2 -28 9 -50 14 -50 7 0 8 16 4 43 -10 60 -22 65 -18 7z"/>
<path d="M155 860 c14 -26 68 -93 103 -130 19 -19 4 3 -33 50 -74 93 -82 102
-70 80z"/>
<path d="M2935 860 c-4 -6 -12 -10 -18 -9 -26 3 -36 -2 -42 -20 -3 -11 -26
-31 -50 -45 -56 -33 -60 -41 -24 -41 16 0 29 5 29 11 0 6 10 16 23 21 21 10
25 7 42 -23 10 -19 20 -32 22 -30 2 2 -4 17 -14 33 -17 30 -17 31 16 72 18 22
30 41 27 41 -2 0 -8 -5 -11 -10z"/>
<path d="M659 828 c-3 -61 37 -202 73 -255 15 -23 28 -50 28 -60 0 -10 -16
-51 -37 -90 l-36 -73 26 -26 c14 -14 36 -45 47 -69 14 -29 29 -45 43 -47 12
-2 23 -12 25 -23 2 -11 9 -24 14 -30 7 -7 9 -1 4 20 -4 17 -21 44 -40 60 -18
17 -36 42 -40 58 -3 15 -10 27 -14 27 -5 0 -16 6 -26 13 -18 13 -17 15 3 55
11 23 21 48 21 57 0 8 4 15 8 15 17 0 90 -119 111 -181 l22 -66 33 31 c18 17
32 33 30 35 -3 3 -10 -1 -16 -7 -28 -28 -44 -11 -62 61 -5 22 -4 27 6 21 7 -5
-6 14 -30 41 -23 26 -45 59 -48 72 -4 13 -10 23 -14 23 -5 0 -6 8 -3 19 3 10
0 22 -6 25 -5 4 -8 13 -4 21 3 8 1 15 -3 15 -27 0 -94 178 -94 251 0 27 -20
34 -21 7z"/>
<path d="M2731 804 c-1 -36 -7 -59 -22 -78 -16 -20 -22 -44 -24 -97 -2 -38 -7
-79 -11 -92 -9 -30 -72 -107 -88 -107 -16 0 -59 -48 -74 -82 -6 -15 -30 -41
-52 -57 -22 -16 -36 -31 -30 -33 7 -2 1 -19 -14 -41 -16 -23 -26 -52 -26 -73
0 -19 -11 -51 -25 -74 -14 -22 -25 -46 -25 -55 0 -24 20 -17 30 11 6 15 19 38
30 52 13 16 20 40 20 67 0 26 6 48 15 55 8 7 15 17 15 22 0 6 13 22 28 36 16
15 35 48 42 74 11 36 22 51 47 65 18 9 35 14 39 11 10 -11 84 94 95 136 6 21
8 50 4 63 -8 35 4 88 26 112 20 21 22 54 9 106 -7 26 -8 23 -9 -21z"/>
<path d="M17 811 c12 -10 46 -82 81 -171 l60 -153 56 -31 c45 -25 58 -38 66
-65 5 -19 22 -47 37 -63 26 -27 28 -36 29 -113 2 -84 24 -177 50 -204 25 -27
27 -2 3 46 -19 40 -23 65 -25 153 0 58 3 114 9 125 8 18 7 17 -12 -3 l-22 -22
-25 29 c-13 16 -24 37 -24 48 0 29 -27 61 -71 83 -34 18 -88 83 -93 114 -1 6
-12 32 -24 59 -11 26 -24 75 -28 108 -4 39 -11 59 -18 56 -7 -3 -20 1 -31 9
-28 21 -44 16 -18 -5z"/>
<path d="M41 708 c-1 -14 -4 -34 -8 -44 -4 -11 -3 -15 5 -10 7 4 16 -11 26
-41 14 -47 15 -47 15 -13 -1 44 -37 149 -38 108z"/>
<path d="M304 665 c9 -14 23 -36 32 -50 9 -14 20 -25 25 -25 5 0 -7 23 -27 50
-37 51 -59 70 -30 25z"/>
<path d="M626 670 c-11 -33 -36 -161 -36 -183 0 -13 7 -32 15 -43 13 -17 14
-16 5 14 -9 34 -4 62 11 62 5 0 9 30 9 66 0 59 1 64 16 50 29 -30 27 -15 -5
34 -9 13 -11 13 -15 0z"/>
<path d="M2791 580 c-13 -11 -32 -20 -42 -20 -10 0 -19 -4 -19 -9 0 -13 73 -1
82 13 5 6 8 7 8 1 0 -5 4 -3 9 5 10 14 6 30 -7 30 -4 -1 -18 -10 -31 -20z"/>
<path d="M94 537 c18 -30 28 -87 15 -87 -6 0 -7 5 -4 10 3 6 2 10 -3 10 -6 0
-20 11 -33 25 -55 59 -58 42 -4 -18 32 -36 63 -64 67 -61 7 5 65 -30 78 -46 3
-4 21 -10 40 -13 l35 -7 -25 20 c-14 12 -45 31 -70 44 -40 21 -48 31 -63 79
-10 30 -24 58 -32 61 -13 5 -13 2 -1 -17z"/>
<path d="M2789 511 c-12 -34 -47 -61 -81 -62 -17 -1 -14 -3 12 -11 19 -5 41
-15 48 -20 10 -8 11 -6 4 12 -7 18 -3 29 15 48 13 14 23 33 23 43 0 28 -10 23
-21 -10z"/>
<path d="M2890 402 c-26 -27 -66 -74 -89 -105 -23 -32 -44 -57 -47 -57 -3 0
-14 10 -23 22 -12 14 -20 17 -25 10 -3 -6 3 -16 14 -22 11 -6 20 -20 20 -30 0
-31 12 -23 48 30 19 27 63 83 98 125 73 84 75 100 4 27z"/>
<path d="M548 396 c16 -17 48 -57 72 -88 23 -32 44 -58 47 -58 2 0 1 6 -4 13
-4 6 -8 15 -8 18 0 18 -105 146 -119 146 -13 0 -10 -7 12 -31z"/>
<path d="M2981 304 c2 -103 3 -117 9 -69 6 58 3 186 -6 194 -2 2 -3 -54 -3
-125z"/>
<path d="M488 373 c-1 -27 0 -64 3 -83 4 -24 7 -8 8 48 1 89 -5 110 -11 35z"/>
<path d="M2663 412 c-6 -4 -12 -14 -13 -22 -4 -24 0 -64 4 -59 5 4 26 89 22
89 0 0 -6 -4 -13 -8z"/>
<path d="M970 271 c0 -4 11 -13 24 -21 16 -8 32 -33 45 -70 12 -33 31 -64 45
-73 26 -17 60 -82 51 -97 -3 -6 1 -10 10 -10 9 0 13 5 10 10 -3 6 1 10 10 10
12 0 8 7 -12 25 -25 22 -26 24 -8 25 16 0 10 9 -27 40 -27 24 -49 52 -53 69
-3 16 -13 32 -20 35 -8 3 -12 11 -9 19 3 8 -1 18 -8 24 -17 13 -58 23 -58 14z"/>
<path d="M2139 233 c-13 -16 -12 -17 3 -4 19 14 48 9 48 -9 0 -5 -12 -11 -27
-11 -26 -2 -26 -2 -4 -6 31 -6 48 11 31 32 -16 20 -34 19 -51 -2z"/>
<path d="M1505 200 l-40 -7 48 -2 c26 0 47 4 47 9 0 6 -3 9 -7 9 -5 -1 -26 -5
-48 -9z"/>
<path d="M875 149 c-14 -41 -15 -53 -5 -62 10 -9 12 -8 6 7 -3 10 -2 24 3 30
10 13 25 76 18 76 -3 0 -13 -23 -22 -51z"/>
<path d="M220 156 c19 -21 21 -29 11 -35 -8 -6 -2 -10 19 -15 57 -11 70 -8 70
17 0 16 -3 18 -9 8 -11 -17 -41 -8 -84 27 l-32 26 25 -28z"/>
<path d="M1768 138 c9 -18 23 -37 30 -41 6 -4 12 -16 12 -25 0 -9 9 -30 20
-47 18 -26 20 -27 17 -8 -2 12 -6 26 -10 29 -4 4 -7 15 -7 24 0 10 -7 23 -15
30 -22 18 -18 28 13 33 22 3 21 4 -9 6 -23 0 -39 7 -43 16 -3 8 -10 15 -15 15
-6 0 -2 -15 7 -32z"/>
<path d="M1694 141 c3 -4 -3 -16 -14 -26 -11 -10 -20 -24 -20 -31 0 -7 -8 -18
-17 -23 -10 -6 -13 -11 -5 -11 10 0 10 -4 0 -20 -7 -10 -9 -22 -5 -26 9 -9 36
26 37 47 0 9 8 27 18 40 28 36 34 59 16 59 -8 0 -13 -4 -10 -9z"/>
<path d="M2450 130 c-13 -8 -13 -10 2 -10 24 0 11 -38 -16 -46 -21 -7 -21 -7
-1 -15 30 -12 34 -11 33 9 0 9 3 29 7 45 8 28 0 33 -25 17z"/>
<path d="M220 87 c0 -36 31 -87 53 -87 21 0 21 0 -1 16 -12 8 -22 23 -22 33 0
9 -7 26 -15 37 -14 18 -14 18 -15 1z"/>
</g>
</svg>
