<?xml version="1.0" standalone="no"?>
<!DOCTYPE svg PUBLIC "-//W3C//DTD SVG 20010904//EN"
 "http://www.w3.org/TR/2001/REC-SVG-20010904/DTD/svg10.dtd">
<svg version="1.0" xmlns="http://www.w3.org/2000/svg"
 width="300.000000pt" height="278.000000pt" viewBox="0 0 300.000000 278.000000"
 preserveAspectRatio="xMidYMid meet">
<metadata>
Created by potrace 1.10, written by Peter Selinger 2001-2011
</metadata>
<g transform="translate(0.000000,278.000000) scale(0.100000,-0.100000)"
fill="#000000" stroke="none">
<path d="M1232 2770 l1238 -5 26 -27 27 -27 -37 -6 c-30 -6 -41 -3 -60 14 -12
11 -32 21 -45 21 -28 0 -61 -17 -61 -32 0 -9 3 -9 12 0 16 16 60 15 83 -1 20
-16 17 -19 -39 -37 -57 -18 -119 -80 -152 -153 -25 -54 -29 -74 -29 -152 0
-67 5 -99 18 -127 42 -84 154 -161 259 -176 29 -4 52 -12 51 -17 -4 -16 -85
-23 -295 -25 -108 -1 -199 -4 -202 -7 -10 -11 13 -39 68 -83 55 -44 55 -44 49
-89 -5 -36 -3 -46 12 -57 29 -21 62 -17 84 12 38 48 17 94 -42 94 -24 1 -46
14 -91 54 l-58 54 228 4 c126 3 231 3 233 2 9 -7 -57 -155 -117 -258 -72 -125
-154 -241 -230 -326 l-47 -52 -130 97 c-154 116 -237 184 -445 365 -85 75
-229 198 -320 275 -91 76 -169 141 -173 145 -4 4 4 29 18 56 30 56 31 107 2
112 -12 3 -41 -19 -83 -60 -51 -52 -64 -71 -64 -96 0 -46 31 -60 75 -33 19 11
37 16 40 11 3 -5 107 -96 231 -202 125 -106 299 -255 388 -331 88 -76 227
-188 308 -248 l148 -111 34 -106 c46 -143 78 -273 117 -472 30 -158 31 -172
25 -325 -6 -129 -19 -277 -38 -415 -2 -13 -75 -15 -590 -15 -323 0 -588 1
-588 3 0 1 11 7 25 12 31 12 32 35 4 51 -15 8 -33 8 -64 0 -24 -6 -47 -11 -50
-11 -4 0 79 88 184 196 112 116 198 213 210 237 13 28 25 89 35 184 27 245 17
434 -31 572 -29 85 -116 266 -133 276 -24 15 -18 -6 24 -86 63 -118 117 -265
118 -319 1 -85 -96 -265 -254 -473 -86 -112 -241 -265 -398 -392 -185 -150
-260 -216 -260 -232 0 -10 -33 -13 -152 -13 -143 0 -257 -7 -267 -16 -2 -2
633 -4 1412 -4 1006 0 1417 3 1417 11 0 7 -76 10 -249 7 -209 -2 -248 -1 -238
11 18 21 -19 41 -76 41 l-50 0 6 63 c20 198 29 364 24 452 -9 157 -88 516
-153 695 -22 63 -24 74 -11 88 86 102 135 165 187 241 69 103 162 276 180 336
13 41 30 69 30 48 0 -12 127 -181 252 -335 78 -97 82 -100 89 -75 10 36 29
218 29 273 0 31 7 54 20 71 37 47 20 113 -29 113 -37 0 -81 -44 -81 -81 0 -32
23 -59 51 -59 17 0 19 -7 18 -57 0 -32 -6 -100 -12 -152 l-12 -94 -121 154
c-179 228 -204 264 -204 287 0 18 6 22 30 22 92 0 210 84 260 185 34 68 35
196 2 267 -40 89 -150 176 -248 194 -23 4 -50 19 -65 35 l-27 29 257 3 c141 1
-421 2 -1249 2 l-1505 0 1237 -5z m1291 -92 c4 -10 7 -10 15 0 12 17 78 1 138
-33 217 -126 214 -421 -6 -536 -38 -20 -60 -24 -140 -24 -84 0 -101 3 -147 28
-115 60 -173 143 -173 248 0 147 83 274 196 299 27 6 37 5 41 -6 8 -21 25 -5
18 17 -5 16 -1 19 23 19 17 0 33 -6 35 -12z m-1467 -342 c-18 -46 -79 -110
-99 -103 -7 2 -13 15 -15 30 -3 20 9 39 52 84 42 43 59 54 68 45 8 -8 7 -22
-6 -56z m1869 -360 c0 -45 -19 -62 -57 -53 -34 9 -41 40 -16 72 14 19 28 25
47 23 23 -3 26 -7 26 -42z m-704 -115 c21 -16 22 -22 11 -45 -8 -18 -19 -26
-37 -26 -33 0 -52 38 -36 69 14 26 32 27 62 2z m-826 -1171 c-20 -196 -7 -172
-215 -385 -197 -202 -230 -241 -230 -267 0 -23 -1 -23 -145 -23 -91 0 -141 3
-135 10 19 18 10 36 -27 51 -20 9 -49 14 -65 12 -15 -3 -28 -3 -28 -2 0 1 78
65 173 142 94 77 220 189 278 249 158 161 338 414 375 526 9 29 19 57 23 62
14 23 11 -222 -4 -375z m-743 -638 c7 -7 8 -15 4 -19 -10 -10 -132 -17 -153
-9 -16 7 -15 9 7 27 20 16 36 19 78 16 29 -2 58 -9 64 -15z m445 2 c5 -15 -29
-24 -89 -24 -52 0 -65 16 -20 26 15 3 32 7 37 9 20 7 69 0 72 -11z m1288 -13
c7 -12 -51 -24 -90 -19 -16 2 -30 9 -33 16 -5 15 113 18 123 3z"/>
<path d="M2497 2598 c-7 -20 0 -28 25 -28 21 0 23 -11 6 -29 -10 -11 -8 -10
10 0 12 8 22 17 22 20 0 7 -25 19 -37 18 -4 0 -10 7 -13 17 -6 15 -7 16 -13 2z"/>
<path d="M2569 2531 c8 -5 11 -16 8 -24 -4 -10 0 -13 13 -10 10 3 21 0 24 -6
4 -6 12 -11 19 -11 6 0 0 8 -13 17 -14 9 -29 23 -33 30 -4 7 -13 13 -20 13 -8
0 -7 -3 2 -9z"/>
<path d="M2270 2483 c0 -5 6 -15 13 -22 6 -7 12 -29 12 -49 0 -43 25 -54 56
-26 27 25 24 35 -24 69 -51 36 -57 39 -57 28z"/>
<path d="M2509 2464 c-19 -14 -51 -34 -71 -45 -35 -18 -55 -45 -25 -33 8 3 20
-2 27 -11 27 -33 70 -11 70 37 0 19 10 37 28 53 36 32 15 32 -29 -1z"/>
<path d="M2595 2450 c4 -6 11 -8 16 -5 5 4 9 1 9 -5 0 -6 9 -20 20 -32 11 -12
20 -17 20 -11 0 6 -6 16 -14 23 -8 6 -13 17 -10 24 3 7 -6 12 -21 14 -16 1
-24 -2 -20 -8z"/>
<path d="M2681 2396 c-9 -11 -5 -21 19 -47 21 -23 29 -27 24 -14 -4 11 -16 26
-26 33 -19 14 -15 38 4 26 7 -4 8 -2 4 4 -9 15 -11 15 -25 -2z"/>
<path d="M2440 2281 c-57 -21 -106 -44 -108 -51 -3 -9 1 -11 14 -6 128 51 202
73 217 64 13 -6 17 -5 17 5 0 12 -24 30 -33 26 -1 0 -49 -18 -107 -38z"/>
<path d="M435 2720 c3 -5 20 -10 37 -10 40 0 110 -41 128 -74 7 -14 17 -26 22
-26 32 0 -34 77 -87 101 -43 20 -110 26 -100 9z"/>
<path d="M1351 2630 c-9 -26 -8 -30 9 -30 13 0 17 -5 13 -20 -3 -11 -1 -20 4
-20 5 0 9 8 9 18 1 9 5 26 9 37 7 16 6 18 -6 8 -21 -20 -30 -15 -23 12 9 35
-2 31 -15 -5z"/>
<path d="M346 2601 c-4 -5 22 -8 58 -8 52 2 70 -2 95 -20 36 -27 42 -28 34 -8
-10 27 -60 45 -122 45 -33 0 -62 -4 -65 -9z"/>
<path d="M1440 2545 c-10 -12 -16 -13 -26 -4 -9 8 -14 8 -14 1 0 -6 9 -14 20
-17 11 -3 20 -11 20 -17 0 -19 34 -37 47 -26 9 7 18 6 30 -3 10 -8 6 0 -7 18
-29 37 -40 41 -33 13 4 -16 2 -19 -11 -14 -10 4 -15 13 -12 21 3 8 1 11 -4 8
-17 -11 -11 7 8 21 9 7 12 14 6 14 -6 0 -17 -7 -24 -15z"/>
<path d="M156 2508 c-10 -14 -16 -44 -16 -83 -1 -37 -6 -67 -15 -79 -14 -18
-15 -15 -15 37 0 36 -4 57 -11 57 -8 0 -10 -22 -7 -71 4 -52 1 -82 -11 -115
l-17 -44 -27 27 c-14 15 -29 24 -33 20 -4 -3 8 -20 25 -37 27 -27 31 -39 31
-84 0 -119 63 -210 188 -269 59 -28 77 -32 152 -32 67 0 95 5 135 23 55 25
128 91 152 135 12 24 19 28 41 22 15 -3 37 -13 50 -21 l22 -15 -59 -77 c-67
-88 -161 -230 -161 -243 0 -5 6 -9 13 -9 16 0 217 159 217 172 0 13 -12 4
-108 -74 -46 -37 -86 -68 -89 -68 -7 0 15 34 110 168 44 61 83 112 87 112 4 0
10 -55 14 -122 3 -68 14 -168 24 -223 l17 -100 93 1 c113 2 225 18 350 49 89
23 95 23 128 7 32 -15 38 -15 62 -1 17 9 28 25 30 43 7 54 -55 87 -91 49 -9
-10 -25 -27 -35 -39 -32 -36 -324 -94 -471 -94 l-49 0 -15 108 c-26 173 -29
212 -20 212 14 1 56 40 49 47 -3 4 -17 -4 -30 -16 l-23 -22 -7 47 c-3 26 -5
49 -3 50 2 2 39 -25 83 -59 93 -74 181 -168 244 -260 25 -37 51 -67 59 -67 10
0 9 6 -4 28 -53 81 -135 179 -202 242 -81 76 -234 183 -276 194 -24 6 -25 8
-15 36 16 48 5 168 -21 222 -53 110 -174 188 -293 188 -75 0 -185 -34 -222
-69 -12 -12 -25 -21 -28 -21 -8 0 3 92 14 113 14 28 2 32 -16 5z m372 -79 l62
-31 0 -53 c0 -55 34 -165 51 -165 12 0 12 0 -16 84 -14 41 -25 85 -25 97 l0
22 26 -24 c45 -42 77 -117 82 -195 4 -61 1 -80 -20 -126 -34 -74 -76 -119
-145 -153 -49 -25 -70 -29 -138 -30 -71 0 -88 4 -147 33 -83 40 -151 112 -167
176 -14 56 -14 133 -1 141 6 4 8 11 4 16 -9 14 51 131 83 161 31 30 91 58 123
58 11 0 20 5 20 10 0 6 31 10 73 10 62 0 83 -5 135 -31z m970 -781 c17 -17 15
-57 -3 -64 -22 -9 -65 4 -72 22 -7 18 24 54 47 54 9 0 21 -5 28 -12z"/>
<path d="M418 2350 c-21 -28 -34 -50 -29 -50 4 0 11 3 15 8 4 4 19 7 33 7 34
0 55 32 31 46 -10 5 -15 16 -12 24 10 26 0 17 -38 -35z"/>
<path d="M1175 2375 c0 -64 2 -73 13 -58 15 21 13 125 -3 130 -6 2 -10 -27
-10 -72z"/>
<path d="M1285 2358 c0 -29 -4 -62 -9 -73 -6 -17 -4 -16 14 4 16 19 20 35 18
69 -4 64 -23 64 -23 0z"/>
<path d="M849 2384 c-15 -18 -26 -154 -13 -154 5 0 9 24 9 53 0 28 8 67 17 85
17 34 10 43 -13 16z"/>
<path d="M872 2340 c-6 -11 -12 -37 -11 -57 l1 -38 9 40 c5 22 14 44 19 49 6
6 10 14 10 18 0 15 -15 8 -28 -12z"/>
<path d="M1912 2075 c-7 -14 -12 -43 -11 -63 l1 -37 13 48 c7 26 19 54 25 62
10 12 10 15 -2 15 -8 0 -20 -11 -26 -25z"/>
<path d="M1960 2061 c-13 -25 -13 -68 0 -76 6 -4 10 7 10 25 0 17 5 40 10 51
7 12 7 19 1 19 -6 0 -15 -9 -21 -19z"/>
<path d="M1101 2063 c7 -19 179 -197 184 -191 8 8 -106 139 -151 173 -20 15
-35 24 -33 18z"/>
<path d="M2976 2053 c13 -31 17 -114 5 -126 -6 -6 -11 -16 -11 -21 0 -6 7 -2
15 8 24 32 19 156 -7 156 -6 0 -7 -7 -2 -17z"/>
<path d="M999 2047 c-20 -15 -39 -51 -39 -73 0 -9 -8 -23 -17 -30 -10 -7 -15
-16 -11 -20 4 -4 15 -1 24 7 9 7 29 12 44 11 20 -2 33 4 49 24 26 33 26 49 1
74 -23 23 -29 24 -51 7z m41 -27 c15 -28 -4 -62 -33 -58 -28 4 -34 34 -11 59
22 24 31 24 44 -1z"/>
<path d="M1140 1861 c0 -13 101 -94 108 -87 7 8 -12 28 -63 65 -25 18 -45 28
-45 22z"/>
<path d="M96 1811 c-13 -21 51 -41 126 -40 l73 2 -71 7 c-39 4 -83 15 -97 24
-16 11 -27 13 -31 7z"/>
<path d="M510 1632 c0 -36 28 -62 66 -62 l29 0 -35 18 c-25 12 -36 25 -38 45
-4 36 -22 35 -22 -1z"/>
<path d="M1581 1627 c0 -10 -8 -31 -16 -47 -9 -17 -12 -30 -7 -30 15 0 34 46
29 71 -3 15 -5 18 -6 6z"/>
<path d="M770 1550 c0 -20 29 -68 45 -74 34 -13 36 -5 6 23 -17 16 -31 36 -31
45 0 9 -4 16 -10 16 -5 0 -10 -5 -10 -10z"/>
<path d="M2923 1549 c-6 -6 -32 -11 -58 -11 -27 1 -43 -3 -40 -8 15 -23 125
-5 125 20 0 13 -13 13 -27 -1z"/>
<path d="M2473 1533 c-7 -3 -13 -12 -13 -20 0 -10 6 -13 16 -9 8 3 13 2 10 -2
-9 -16 9 -29 29 -21 16 6 16 8 3 8 -9 1 -20 12 -25 25 -4 12 -14 21 -20 19z"/>
<path d="M740 1513 c0 -12 3 -29 6 -38 7 -17 62 -50 71 -42 2 3 -5 10 -16 16
-11 7 -30 28 -40 49 -16 29 -20 33 -21 15z"/>
<path d="M1352 1473 c2 -5 24 -51 50 -103 25 -52 50 -115 53 -140 4 -25 12
-54 17 -65 18 -40 -2 104 -21 155 -23 61 -81 160 -94 160 -5 0 -7 -3 -5 -7z"/>
<path d="M2539 1457 c6 -8 7 -17 3 -21 -4 -4 -1 -6 7 -4 7 2 16 -3 19 -11 3
-10 -1 -13 -17 -8 -11 3 -21 1 -21 -4 0 -5 6 -9 14 -9 8 0 17 -6 19 -12 4 -10
6 -10 6 0 1 6 8 12 16 12 21 0 19 9 -9 35 -14 13 -22 26 -19 29 4 3 -2 6 -12
6 -13 0 -15 -3 -6 -13z"/>
<path d="M335 1440 c-18 -20 -18 -21 8 -48 25 -25 28 -25 44 -9 11 11 13 17 5
17 -7 0 -12 7 -12 15 0 18 -21 20 -38 3 -9 -9 -12 -9 -12 0 0 6 8 15 17 21 10
5 15 12 12 15 -3 4 -14 -3 -24 -14z"/>
<path d="M1530 1312 c0 -16 29 -35 44 -29 8 3 22 -1 33 -8 24 -19 33 -18 32 3
0 10 -3 12 -6 5 -3 -9 -10 -9 -28 3 -13 9 -28 13 -34 10 -5 -4 -17 1 -25 10
-9 8 -16 11 -16 6z"/>
<path d="M2650 1297 c0 -5 9 -7 20 -4 21 5 59 -17 48 -29 -4 -4 -14 -1 -22 5
-9 8 -16 9 -21 2 -7 -12 39 -26 55 -16 6 4 17 2 25 -5 9 -7 15 -8 20 0 3 5 4
11 1 11 -3 1 -10 3 -16 4 -5 1 -14 3 -20 4 -5 0 -7 9 -4 19 5 14 4 14 -5 2 -9
-13 -11 -13 -16 1 -6 17 -65 22 -65 6z"/>
<path d="M790 984 c-12 -31 -12 -34 -2 -34 4 0 13 14 19 30 6 17 7 30 2 30 -5
0 -14 -12 -19 -26z"/>
<path d="M1924 982 c-18 -11 -26 -49 -13 -58 7 -4 9 -3 6 3 -4 6 0 17 9 24 8
7 14 8 13 3 -4 -21 2 -35 12 -29 12 8 51 -30 41 -40 -4 -4 0 -5 8 -3 11 2 14
-4 12 -25 -3 -25 -1 -27 17 -15 19 12 19 13 -7 44 -15 17 -37 38 -49 44 -12 7
-26 23 -30 36 -5 14 -13 20 -19 16z"/>
<path d="M823 973 c-16 -6 -17 -49 -1 -59 7 -5 8 -3 3 6 -5 8 -2 17 8 25 17
12 9 34 -10 28z"/>
<path d="M839 908 c4 -26 6 -28 9 -10 2 12 7 22 12 22 15 0 22 -20 12 -33 -6
-8 -4 -18 8 -30 17 -18 18 -18 17 0 -2 13 4 17 18 15 16 -3 17 -1 8 9 -10 10
-15 10 -28 -1 -9 -8 -15 -8 -15 -2 0 6 5 14 10 17 13 8 -8 30 -36 39 -18 6
-20 3 -15 -26z"/>
<path d="M917 853 c-4 -3 -7 -12 -7 -20 0 -11 4 -11 20 -1 26 16 40 0 16 -18
-11 -7 -16 -17 -13 -21 4 -3 7 -2 7 2 0 5 6 1 13 -9 12 -17 14 -17 20 -3 3 9
3 16 -1 16 -19 -3 -23 2 -12 16 11 14 15 14 33 -2 20 -18 20 -18 3 8 -19 31
-63 48 -79 32z"/>
<path d="M1024 772 c14 -23 -5 -34 -25 -16 -18 16 -19 16 -13 1 7 -18 7 -18
41 -22 13 -1 29 -8 37 -14 10 -8 16 -9 21 -1 4 6 3 10 -2 9 -15 -4 -43 13 -43
26 0 8 -5 17 -12 21 -7 4 -8 3 -4 -4z"/>
<path d="M2220 749 c0 -35 30 -263 36 -268 9 -9 3 107 -10 192 -13 85 -26 124
-26 76z"/>
<path d="M2374 721 c3 -18 6 -65 6 -103 0 -48 3 -67 11 -62 16 9 7 171 -11
187 -10 10 -11 6 -6 -22z"/>
<path d="M2442 637 c0 -59 3 -85 8 -72 11 26 12 152 2 159 -5 3 -9 -36 -10
-87z"/>
<path d="M1467 553 c-3 -16 -24 -57 -47 -92 -33 -51 -39 -66 -28 -75 7 -6 10
-7 6 -2 -4 5 3 23 16 40 27 35 76 130 76 146 0 22 -18 9 -23 -17z"/>
<path d="M2465 432 c-6 -4 -11 -18 -13 -32 l-2 -25 14 25 15 25 1 -36 c0 -24
6 -39 15 -43 16 -6 55 13 55 26 0 13 -12 9 -25 -9 -14 -19 -38 -8 -31 15 7 22
-16 63 -29 54z"/>
<path d="M264 404 c-14 -20 -15 -27 -4 -37 8 -8 11 -8 7 -1 -4 7 -1 17 7 23
12 10 14 6 12 -19 -1 -17 2 -34 6 -36 5 -3 8 11 6 31 -1 20 -6 39 -10 41 -5 3
-6 10 -3 15 14 22 -6 7 -21 -17z"/>
<path d="M2549 341 c8 -5 11 -16 6 -30 -3 -12 -2 -21 3 -21 6 0 12 5 14 11 3
9 9 9 25 0 14 -7 24 -8 28 -1 3 5 -3 10 -15 10 -11 0 -28 9 -37 20 -10 11 -22
20 -28 20 -5 0 -4 -4 4 -9z"/>
<path d="M1410 334 c0 -6 7 -17 16 -24 12 -11 15 -11 12 0 -2 7 3 15 11 18 10
3 12 -2 7 -22 -7 -29 0 -32 28 -11 17 13 18 15 3 15 -9 0 -17 7 -17 15 0 17
-26 20 -36 4 -4 -8 -9 -7 -15 2 -5 8 -9 9 -9 3z"/>
<path d="M333 315 c-6 -17 28 -49 37 -36 3 5 10 10 15 12 6 2 3 11 -7 22 -17
16 -18 16 -18 -4 0 -12 -4 -17 -11 -14 -6 4 -8 13 -5 21 3 8 3 14 0 14 -2 0
-7 -7 -11 -15z"/>
<path d="M2667 213 c-14 -13 -6 -36 19 -60 14 -13 29 -21 33 -18 3 4 -7 16
-22 27 -19 14 -26 26 -22 39 7 20 3 24 -8 12z"/>
<path d="M2695 200 c-6 -10 56 -61 67 -54 15 10 8 24 -12 24 -11 0 -20 6 -20
14 0 16 -27 29 -35 16z"/>
<path d="M1612 180 c7 -14 13 -26 13 -26 0 -1 10 -5 23 -8 13 -5 22 -3 22 3 0
6 -7 11 -16 11 -9 0 -25 10 -35 23 l-20 22 13 -25z"/>
</g>
</svg>
